<svg width="506" height="320" viewBox="0 0 506 320" fill="none" xmlns="http://www.w3.org/2000/svg">
<g clip-path="url(#clip0)">
<path d="M415.296 257.167H39.4563V258.065H415.296V257.167Z" fill="white"/>
<path d="M341.654 0.448853H186.29V111.304H341.654V0.448853Z" fill="#D63447"/>
<path d="M3.08479 178.177C3.08479 178.177 62.806 1.34647 246.011 110.407C429.216 219.467 503.306 185.806 503.306 185.806" fill="#FAFAFA"/>
<path d="M356.922 287.237H188.984V288.135H356.922V287.237Z" fill="white"/>
<path d="M452.058 272.426H317.639C317.639 272.426 314.914 232.484 331.036 232.03C347.157 231.576 345.34 249.732 365.549 224.768C385.757 199.803 410.279 201.165 413.458 215.917C416.637 230.668 407.328 242.469 424.357 238.838C441.387 235.207 465.909 244.739 452.058 272.426Z" fill="#D63447"/>
<path d="M382.58 272.435L382.126 272.417C383.184 246.119 388.694 229.223 393.131 219.679C397.948 209.317 402.589 205.122 402.635 205.081L402.937 205.42C402.892 205.461 398.304 209.614 393.526 219.906C389.114 229.409 383.634 246.237 382.58 272.435Z" fill="#F2F2F2"/>
<path d="M431.229 272.49L430.793 272.363C436.043 254.354 448.405 242.984 448.529 242.871L448.834 243.207C448.711 243.319 436.442 254.609 431.229 272.49Z" fill="#F2F2F2"/>
<path d="M338.811 272.458L338.361 272.395C340.142 259.557 336.925 249.596 333.912 243.501C330.65 236.901 326.929 233.296 326.891 233.261L327.206 232.933C327.243 232.969 331.023 236.629 334.319 243.3C337.36 249.452 340.608 259.505 338.811 272.458Z" fill="#F2F2F2"/>
<path d="M134.593 292.623H0.1739C0.1739 292.623 -2.55082 252.68 13.5704 252.226C29.6916 251.772 27.8752 269.928 48.0835 244.964C68.2917 220 92.8142 221.362 95.993 236.113C99.1718 250.865 89.8624 262.666 106.892 259.035C123.921 255.403 148.444 264.935 134.593 292.623Z" fill="#D63447"/>
<path d="M65.1145 292.632L64.6608 292.614C65.7188 266.316 71.2292 249.419 75.6655 239.876C80.4823 229.513 85.124 225.318 85.1703 225.277L85.4721 225.616C85.4264 225.657 80.8389 229.81 76.0607 240.103C71.6488 249.606 66.1686 266.433 65.1145 292.632Z" fill="#F2F2F2"/>
<path d="M113.764 292.686L113.328 292.559C118.578 274.55 130.939 263.18 131.064 263.067L131.369 263.403C131.246 263.515 118.976 274.805 113.764 292.686Z" fill="#F2F2F2"/>
<path d="M21.3455 292.654L20.8956 292.592C22.6766 279.753 19.4596 269.792 16.447 263.697C13.1852 257.097 9.4634 253.493 9.42615 253.457L9.74035 253.13C9.77816 253.166 13.5575 256.826 16.8541 263.496C19.8948 269.648 23.1424 279.701 21.3455 292.654Z" fill="#F2F2F2"/>
<path d="M506 319.102H11.6164V320H506V319.102Z" fill="white"/>
<path d="M420.32 259.052V267.11L427.038 267.558L426.59 258.157L420.32 259.052Z" fill="#A0616A"/>
<path d="M421.664 262.633L417.185 261.738C417.185 261.738 410.914 272.93 406.883 273.825C403.356 274.608 395.028 277.448 398.102 281.445C398.564 282.019 399.161 282.468 399.84 282.752C400.52 283.036 401.259 283.145 401.992 283.07L421.216 281.435C421.216 281.435 428.83 281.883 428.83 277.406V262.633H421.664Z" fill="#2F2E41"/>
<path d="M420.881 217.339L418.951 261.049L431.17 264.263L420.881 217.339Z" fill="#2F2E41"/>
<path d="M425.382 276.476V288.047L435.029 288.69L434.386 275.191L425.382 276.476Z" fill="#A0616A"/>
<path d="M405.446 161.416L410.591 169.13L422.167 238.552L424.096 280.333H443.39L438.888 178.772C438.888 178.772 447.891 167.844 441.46 156.917L405.446 161.416Z" fill="#2F2E41"/>
<path d="M427.312 281.619L420.881 280.333C420.881 280.333 411.877 296.403 406.089 297.689C401.128 298.791 389.552 302.726 393.23 308.281C393.872 309.207 394.75 309.945 395.773 310.417C396.797 310.889 397.928 311.079 399.05 310.966L426.669 308.616C426.669 308.616 437.602 309.259 437.602 302.831V281.619H427.312Z" fill="#2F2E41"/>
<path d="M427.955 73.3534C435.414 73.3534 441.46 67.3098 441.46 59.8547C441.46 52.3995 435.414 46.356 427.955 46.356C420.496 46.356 414.449 52.3995 414.449 59.8547C414.449 67.3098 420.496 73.3534 427.955 73.3534Z" fill="#A0616A"/>
<path d="M420.238 66.9254V86.2093C420.238 86.8521 435.029 84.9237 435.029 84.9237C435.029 84.9237 435.672 66.9255 435.672 64.9971L420.238 66.9254Z" fill="#A0616A"/>
<path d="M436.315 75.2817C436.315 75.2817 427.955 73.3533 413.163 82.9952H410.591L409.948 97.7795C409.948 97.7795 400.944 107.421 402.23 111.278C402.23 111.278 391.297 124.134 395.799 129.276C395.799 129.276 385.509 141.49 390.011 146.632C390.011 146.632 379.078 160.773 385.509 162.702C385.509 162.702 399.658 162.702 407.375 163.987C415.093 165.273 447.248 158.202 447.248 158.202C447.248 158.202 447.891 141.49 447.248 141.49H446.605C446.605 141.49 449.178 126.063 447.891 125.42C447.891 125.42 448.535 108.064 446.605 107.421L436.315 75.2817Z" fill="#3F3D56"/>
<path d="M434.252 90.0851C431.893 90.4062 429.653 91.3175 427.741 92.7344C425.828 94.1514 424.304 96.0281 423.311 98.1906C421.452 102.286 420.831 106.835 421.524 111.278C423.453 124.134 427.955 127.991 427.955 127.991C427.955 127.991 423.453 129.919 424.739 131.848C426.026 133.776 423.453 133.776 423.453 133.776C423.453 133.776 423.453 134.419 421.524 135.704C419.594 136.99 418.308 136.347 417.665 136.99C417.022 137.633 414.449 136.99 414.449 136.99C414.449 136.99 406.732 150.489 414.449 151.774C422.167 153.06 425.382 146.632 428.598 147.275C431.814 147.918 447.248 142.775 445.962 130.562C444.676 118.349 438.888 89.4232 434.386 90.066L434.252 90.0851Z" fill="#D0CDE1"/>
<path d="M416.024 46.9923C416.353 45.665 416.99 44.4336 417.883 43.3976C418.776 42.3616 419.9 41.55 421.165 41.0284C423.696 40.0104 427.355 37.0815 429.65 38.5555C430.674 39.2135 431.554 40.0866 432.619 40.677C434.34 41.6311 436.376 41.7648 438.318 42.0834C443.201 42.8848 447.292 48.2713 450.705 51.8537C454.117 55.4361 456.087 60.4899 455.474 65.3982C455.07 68.6362 453.614 71.6341 452.65 74.7518C451.686 77.8695 451.255 81.4098 452.816 84.2757C454.606 87.5627 458.477 89.0708 461.09 91.7513C462.906 93.6991 464.052 96.1762 464.36 98.821C464.668 101.466 464.122 104.14 462.801 106.452C462.218 107.424 461.487 108.335 461.181 109.426C460.876 110.518 461.147 111.888 462.152 112.412C462.612 112.592 463.087 112.728 463.571 112.819C465.183 113.305 466.164 114.958 466.594 116.584C467.023 118.211 467.061 119.93 467.59 121.527C468.882 125.427 472.742 127.786 476.318 129.812C469.254 129.622 462.077 129.444 455.24 131.234C452.302 132.003 448.91 133.057 446.452 131.273C444.768 130.05 444.125 127.819 444.078 125.739C444.03 123.658 444.462 121.589 444.418 119.509C444.323 115.012 441.911 110.705 438.354 107.95C436.249 106.319 433.773 105.19 431.783 103.421C430.091 101.884 428.818 99.9426 428.082 97.7791C427.346 95.6157 427.171 93.3008 427.575 91.0516C427.883 89.4369 428.495 87.8492 428.404 86.2078C428.224 82.969 425.401 80.4348 424.796 77.2478C424.161 73.8998 426.067 70.6402 426.597 67.274C426.842 65.225 426.805 63.152 426.488 61.1129C426.088 57.7296 425.486 54.2206 423.479 51.4669C421.592 48.8768 418.978 47.1578 415.778 46.9683C414.748 46.9073 416.192 46.0235 415.778 46.9683" fill="#2F2E41"/>
<path d="M426.99 63.3899C427.701 63.3899 428.276 62.2388 428.276 60.8187C428.276 59.3987 427.701 58.2476 426.99 58.2476C426.28 58.2476 425.704 59.3987 425.704 60.8187C425.704 62.2388 426.28 63.3899 426.99 63.3899Z" fill="#A0616A"/>
<path d="M64.8267 229.116L69.766 278.485L78.2976 277.139L81.8899 230.014L64.8267 229.116Z" fill="#FFB8B8"/>
<path d="M79.6446 272.202L67.9698 273.997L69.3169 288.359C69.3169 288.359 65.2756 290.603 67.9698 297.784C70.664 304.965 70.664 306.76 70.664 306.76L79.9131 305.866C83.4975 305.519 92.1122 302.29 93.3401 298.906C93.8494 297.502 88.4132 297.21 87.2782 296.886C84.135 295.989 79.6446 272.202 79.6446 272.202Z" fill="#2F2E41"/>
<path d="M108.832 227.321L113.771 276.69L122.303 275.344L125.895 228.219L108.832 227.321Z" fill="#FFB8B8"/>
<path d="M100.974 68.2188C108.661 68.2188 114.894 61.9897 114.894 54.3057C114.894 46.6218 108.661 40.3927 100.974 40.3927C93.2859 40.3927 87.0537 46.6218 87.0537 54.3057C87.0537 61.9897 93.2859 68.2188 100.974 68.2188Z" fill="#FFB8B8"/>
<path d="M104.79 63.9551C104.79 63.9551 101.198 73.3801 104.79 76.5217C108.383 79.6634 80.9917 79.6634 80.9917 79.6634L92.2175 59.467L104.79 63.9551Z" fill="#FFB8B8"/>
<path d="M131.283 230.463C125.446 240.785 68.4189 233.604 68.4189 233.604L58.5402 227.321L54.4989 225.077C54.4989 225.077 57.1931 181.992 62.1324 155.512C67.0718 129.032 79.6446 127.237 79.6446 127.237L79.6896 126.716L80.0937 121.851C80.0937 121.851 79.7209 121.452 79.0789 120.729C75.078 116.21 60.709 99.0877 63.0305 88.6395C65.7247 76.5217 85.9311 70.6872 98.0549 70.2384C110.179 69.7896 120.507 80.561 120.507 80.561L118.755 87.899L111.077 120.056L110.96 120.729L109.73 127.686C111.988 127.825 113.448 128.323 114.386 128.938C116.438 130.275 116.016 132.174 116.016 132.174L122.891 176.444L131.283 230.463Z" fill="#3F3D56"/>
<path d="M54.4989 171.22C54.4989 171.22 52.5144 190.785 57.3234 191.325C62.1324 191.865 60.7853 171.22 60.7853 171.22H54.4989Z" fill="#FFB8B8"/>
<path d="M69.3169 83.2538C69.3169 83.2538 61.6834 82.805 60.3363 91.3324C58.9892 99.8597 57.6421 132.623 57.6421 132.623L50.0086 173.464L65.7247 175.259L76.0524 113.324L69.3169 83.2538Z" fill="#3F3D56"/>
<path d="M134.426 172.118C134.426 172.118 137.57 190.07 132.63 190.519C127.691 190.968 125.895 173.015 125.895 173.015L134.426 172.118Z" fill="#FFB8B8"/>
<path d="M97.2814 33.4719C96.0517 33.4054 94.8184 33.4886 93.6089 33.7198C92.2787 34.071 91.0013 34.5978 89.8105 35.2865C84.2478 38.2388 78.7484 42.0859 76.1375 47.8147C73.9937 52.5186 74.0679 57.9298 74.768 63.0512C74.9932 64.6987 75.2779 66.3836 74.93 68.0096C74.2138 71.3562 71.0537 73.6047 69.6186 76.712C68.1464 79.8996 68.6595 83.7164 70.1317 86.904C70.5518 87.8137 71.0597 88.7917 70.8252 89.7658C70.6731 90.263 70.4185 90.7229 70.0779 91.1158C68.92 92.6212 67.5843 93.9974 66.5881 95.6142C65.592 97.2311 64.9494 99.18 65.367 101.032C65.7983 102.946 67.2613 104.431 68.6608 105.805C69.9741 107.095 71.5192 108.478 73.3579 108.379C74.4641 108.319 75.4585 107.72 76.4007 107.137C79.2252 105.392 82.335 103.226 82.7785 99.9371C83.6436 102.88 87.125 104.162 90.1871 104.37C92.7881 104.546 95.5099 104.228 97.738 102.876C99.9661 101.523 101.587 98.976 101.303 96.3859C101.08 94.364 99.7863 92.2621 100.698 90.4436C101.39 89.0631 103.047 88.5407 104.348 87.7078C105.639 86.8451 106.636 85.6086 107.205 84.1638C107.774 82.719 107.887 81.135 107.531 79.6239C106.722 76.4752 103.857 73.735 104.447 70.5382C104.795 68.6525 106.297 67.1879 106.929 65.3774C107.683 63.2172 107.114 60.8094 106.175 58.7229C105.236 56.6365 103.937 54.7163 103.136 52.5731C102.761 51.7273 102.631 50.7931 102.761 49.8771C103.165 47.9449 105.339 46.9314 107.301 46.7078C109.263 46.4842 111.32 46.737 113.159 46.016C114.862 45.3478 116.961 43.2131 116.652 41.202C116.361 39.3061 113.7 37.8659 112.221 36.9915C107.763 34.3559 102.381 33.5848 97.2814 33.4719Z" fill="#2F2E41"/>
<path d="M79.6895 126.716L80.0937 121.851C80.0937 121.851 79.7209 121.452 79.0789 120.729H110.96L109.73 127.686C111.988 127.825 109.016 126.846 109.954 127.461C102.056 126.788 87.862 126.748 79.6895 126.716Z" fill="#2F2E41"/>
<path opacity="0.1" d="M122.891 176.444L116.465 177.055L109.73 127.686C111.988 127.825 113.448 128.323 114.386 128.938C116.438 130.275 116.016 132.174 116.016 132.174L122.891 176.444Z" fill="black"/>
<path d="M109.73 79.6633L120.507 80.5609L138.468 175.259L119.608 177.055L106.138 103.45L109.73 79.6633Z" fill="#3F3D56"/>
<path opacity="0.1" d="M74.0318 131.501L64.8267 175.259L72.6861 131.501H74.0318Z" fill="black"/>
<path d="M123.201 272.202L111.526 273.997L112.873 288.359C112.873 288.359 108.832 290.603 111.526 297.784C114.22 304.965 114.22 306.76 114.22 306.76L123.469 305.866C127.054 305.519 135.668 302.29 136.896 298.906C137.406 297.502 131.969 297.21 130.834 296.886C127.691 295.989 123.201 272.202 123.201 272.202Z" fill="#2F2E41"/>
<path d="M106.138 58.0444C106.782 57.6726 106.802 56.5011 106.182 55.4278C105.562 54.3545 104.537 53.7858 103.892 54.1576C103.248 54.5294 103.228 55.7009 103.848 56.7742C104.468 57.8475 105.493 58.4162 106.138 58.0444Z" fill="#FFB8B8"/>
<path d="M365.902 111.753H162.042V0H365.902V111.753ZM162.94 110.856H365.004V0.897616H162.94V110.856Z" fill="#3F3D56"/>
<path d="M263.972 28.5654C259.93 24.5265 254.448 22.2578 248.732 22.2583C243.017 22.2588 237.535 24.5284 233.493 28.568C229.452 32.6076 227.181 38.0864 227.181 43.7992C227.18 49.5121 229.45 54.9912 233.491 59.0315L263.972 89.4976L294.453 59.0315C298.494 54.9912 300.764 49.5121 300.764 43.7992C300.763 38.0864 298.492 32.6076 294.451 28.568C290.409 24.5284 284.928 22.2588 279.212 22.2583C273.496 22.2578 268.014 24.5265 263.972 28.5654Z" fill="white"/>
</g>
<defs>
<clipPath id="clip0">
<rect width="506" height="320" fill="white"/>
</clipPath>
</defs>
</svg>
