<svg width="468" height="281" viewBox="0 0 468 281" fill="none" xmlns="http://www.w3.org/2000/svg">
<circle cx="33.5" cy="30.5" r="30.5" fill="#D63447"/>
<path d="M36.2383 47H32.6055V22.918L25.3203 25.5938V22.3125L35.6719 18.4258H36.2383V47Z" fill="white"/>
<path d="M115.43 24.6929C114.787 25.5311 113.896 26.1659 112.756 26.5972C111.617 27.0285 110.323 27.2441 108.875 27.2441C107.385 27.2441 106.067 26.9064 104.919 26.231C103.772 25.5555 102.885 24.5911 102.258 23.3379C101.64 22.0765 101.318 20.6076 101.294 18.9312V17.5396C101.294 14.854 101.937 12.7585 103.223 11.2529C104.508 9.73926 106.303 8.98242 108.606 8.98242C110.583 8.98242 112.154 9.4707 113.318 10.4473C114.482 11.4238 115.181 12.8317 115.417 14.6709H112.39C112.048 12.5306 110.807 11.4604 108.667 11.4604C107.284 11.4604 106.23 11.9609 105.505 12.9619C104.789 13.9548 104.419 15.4155 104.395 17.3442V18.7114C104.395 20.632 104.797 22.1253 105.603 23.1914C106.417 24.2493 107.544 24.7783 108.984 24.7783C110.563 24.7783 111.686 24.4202 112.354 23.7041V20.2251H108.691V17.8813H115.43V24.6929ZM124.353 27.2441C122.473 27.2441 120.947 26.6541 119.775 25.4741C118.612 24.286 118.03 22.7072 118.03 20.7378V20.3716C118.03 19.0532 118.282 17.8773 118.787 16.8438C119.299 15.8021 120.015 14.9924 120.935 14.4146C121.855 13.8368 122.88 13.5479 124.011 13.5479C125.81 13.5479 127.197 14.1216 128.174 15.269C129.159 16.4165 129.651 18.04 129.651 20.1396V21.3359H121.021C121.11 22.4264 121.472 23.2891 122.107 23.9238C122.75 24.5586 123.556 24.876 124.524 24.876C125.883 24.876 126.99 24.3267 127.844 23.228L129.443 24.7539C128.914 25.5433 128.206 26.1577 127.319 26.5972C126.44 27.0285 125.452 27.2441 124.353 27.2441ZM123.999 15.9282C123.185 15.9282 122.526 16.2131 122.021 16.7827C121.525 17.3524 121.208 18.1458 121.069 19.1631H126.721V18.9434C126.656 17.9505 126.392 17.2018 125.928 16.6973C125.464 16.1846 124.821 15.9282 123.999 15.9282ZM135.681 10.5815V13.792H138.013V15.9893H135.681V23.3623C135.681 23.8669 135.779 24.2331 135.974 24.4609C136.178 24.6807 136.536 24.7905 137.048 24.7905C137.39 24.7905 137.736 24.7498 138.086 24.6685V26.9634C137.41 27.1506 136.759 27.2441 136.133 27.2441C133.854 27.2441 132.715 25.9868 132.715 23.4722V15.9893H130.542V13.792H132.715V10.5815H135.681ZM151.135 22.752L153.821 13.792H156.982L151.733 29.002C150.928 31.2236 149.561 32.3345 147.632 32.3345C147.201 32.3345 146.724 32.2612 146.204 32.1147V29.8198L146.765 29.8564C147.514 29.8564 148.075 29.7181 148.45 29.4414C148.832 29.1729 149.133 28.7171 149.353 28.0742L149.78 26.939L145.142 13.792H148.34L151.135 22.752ZM157.947 20.2739C157.947 18.98 158.203 17.8162 158.716 16.7827C159.229 15.741 159.949 14.9435 160.876 14.3901C161.804 13.8286 162.87 13.5479 164.075 13.5479C165.857 13.5479 167.301 14.1216 168.408 15.269C169.523 16.4165 170.125 17.9383 170.215 19.8345L170.227 20.5303C170.227 21.8324 169.975 22.9961 169.47 24.0215C168.974 25.0469 168.258 25.8403 167.322 26.4019C166.394 26.9634 165.32 27.2441 164.099 27.2441C162.236 27.2441 160.742 26.6257 159.619 25.3887C158.504 24.1436 157.947 22.4875 157.947 20.4204V20.2739ZM160.913 20.5303C160.913 21.8893 161.194 22.9554 161.755 23.7285C162.317 24.4935 163.098 24.876 164.099 24.876C165.1 24.876 165.877 24.4854 166.431 23.7041C166.992 22.9229 167.273 21.7795 167.273 20.2739C167.273 18.9393 166.984 17.8813 166.406 17.1001C165.837 16.3188 165.059 15.9282 164.075 15.9282C163.106 15.9282 162.337 16.3148 161.768 17.0879C161.198 17.8529 160.913 19.0003 160.913 20.5303ZM180.737 25.7061C179.867 26.7314 178.63 27.2441 177.026 27.2441C175.594 27.2441 174.508 26.825 173.767 25.9868C173.035 25.1486 172.668 23.936 172.668 22.3491V13.792H175.635V22.3125C175.635 23.9889 176.331 24.8271 177.722 24.8271C179.163 24.8271 180.135 24.3104 180.64 23.2769V13.792H183.606V27H180.811L180.737 25.7061ZM193.542 16.502C193.152 16.4368 192.749 16.4043 192.334 16.4043C190.975 16.4043 190.059 16.9251 189.587 17.9668V27H186.621V13.792H189.453L189.526 15.269C190.243 14.1216 191.235 13.5479 192.505 13.5479C192.928 13.5479 193.278 13.6048 193.555 13.7188L193.542 16.502ZM215.491 21.2139C215.312 23.11 214.612 24.5911 213.391 25.6572C212.17 26.7152 210.547 27.2441 208.521 27.2441C207.104 27.2441 205.855 26.9105 204.773 26.2432C203.699 25.5677 202.869 24.6115 202.283 23.3745C201.697 22.1375 201.392 20.7012 201.367 19.0654V17.4053C201.367 15.7288 201.664 14.2518 202.258 12.9741C202.852 11.6965 203.703 10.7118 204.81 10.02C205.924 9.32829 207.21 8.98242 208.667 8.98242C210.628 8.98242 212.207 9.51546 213.403 10.5815C214.6 11.6476 215.295 13.1532 215.491 15.0981H212.415C212.268 13.8205 211.894 12.9009 211.292 12.3394C210.697 11.7697 209.823 11.4849 208.667 11.4849C207.324 11.4849 206.291 11.9772 205.566 12.9619C204.85 13.9385 204.484 15.3748 204.468 17.271V18.8457C204.468 20.7663 204.81 22.2311 205.493 23.2402C206.185 24.2493 207.194 24.7539 208.521 24.7539C209.733 24.7539 210.645 24.4813 211.255 23.936C211.865 23.3908 212.252 22.4834 212.415 21.2139H215.491ZM217.419 20.2739C217.419 18.98 217.676 17.8162 218.188 16.7827C218.701 15.741 219.421 14.9435 220.349 14.3901C221.277 13.8286 222.343 13.5479 223.547 13.5479C225.33 13.5479 226.774 14.1216 227.881 15.269C228.996 16.4165 229.598 17.9383 229.688 19.8345L229.7 20.5303C229.7 21.8324 229.447 22.9961 228.943 24.0215C228.446 25.0469 227.73 25.8403 226.794 26.4019C225.867 26.9634 224.792 27.2441 223.572 27.2441C221.708 27.2441 220.215 26.6257 219.092 25.3887C217.977 24.1436 217.419 22.4875 217.419 20.4204V20.2739ZM220.386 20.5303C220.386 21.8893 220.667 22.9554 221.228 23.7285C221.79 24.4935 222.571 24.876 223.572 24.876C224.573 24.876 225.35 24.4854 225.903 23.7041C226.465 22.9229 226.746 21.7795 226.746 20.2739C226.746 18.9393 226.457 17.8813 225.879 17.1001C225.309 16.3188 224.532 15.9282 223.547 15.9282C222.579 15.9282 221.81 16.3148 221.24 17.0879C220.671 17.8529 220.386 19.0003 220.386 20.5303ZM235.364 27H232.397V13.792H235.364V27ZM232.214 10.3618C232.214 9.90609 232.357 9.52767 232.642 9.22656C232.935 8.92546 233.35 8.7749 233.887 8.7749C234.424 8.7749 234.839 8.92546 235.132 9.22656C235.425 9.52767 235.571 9.90609 235.571 10.3618C235.571 10.8094 235.425 11.1838 235.132 11.4849C234.839 11.7778 234.424 11.9243 233.887 11.9243C233.35 11.9243 232.935 11.7778 232.642 11.4849C232.357 11.1838 232.214 10.8094 232.214 10.3618ZM241.76 27H238.794V8.25H241.76V27ZM255.518 9.22656L260.645 22.8496L265.759 9.22656H269.751V27H266.675V21.1406L266.98 13.3037L261.731 27H259.521L254.285 13.3159L254.59 21.1406V27H251.514V9.22656H255.518ZM278.943 27.2441C277.063 27.2441 275.537 26.6541 274.365 25.4741C273.201 24.286 272.62 22.7072 272.62 20.7378V20.3716C272.62 19.0532 272.872 17.8773 273.376 16.8438C273.889 15.8021 274.605 14.9924 275.525 14.4146C276.444 13.8368 277.47 13.5479 278.601 13.5479C280.4 13.5479 281.787 14.1216 282.764 15.269C283.748 16.4165 284.241 18.04 284.241 20.1396V21.3359H275.61C275.7 22.4264 276.062 23.2891 276.697 23.9238C277.34 24.5586 278.145 24.876 279.114 24.876C280.473 24.876 281.58 24.3267 282.434 23.228L284.033 24.7539C283.504 25.5433 282.796 26.1577 281.909 26.5972C281.03 27.0285 280.042 27.2441 278.943 27.2441ZM278.589 15.9282C277.775 15.9282 277.116 16.2131 276.611 16.7827C276.115 17.3524 275.798 18.1458 275.659 19.1631H281.311V18.9434C281.246 17.9505 280.981 17.2018 280.518 16.6973C280.054 16.1846 279.411 15.9282 278.589 15.9282ZM289.343 13.792L289.429 15.1714C290.356 14.089 291.626 13.5479 293.237 13.5479C295.003 13.5479 296.212 14.2233 296.863 15.5742C297.823 14.2233 299.174 13.5479 300.916 13.5479C302.372 13.5479 303.455 13.9507 304.163 14.7563C304.879 15.562 305.245 16.7502 305.261 18.3208V27H302.295V18.4062C302.295 17.568 302.112 16.9536 301.746 16.563C301.379 16.1724 300.773 15.9771 299.927 15.9771C299.251 15.9771 298.698 16.1602 298.267 16.5264C297.843 16.8844 297.546 17.3564 297.375 17.9424L297.388 27H294.421V18.3086C294.381 16.7542 293.587 15.9771 292.041 15.9771C290.853 15.9771 290.011 16.4613 289.514 17.4297V27H286.548V13.792H289.343ZM319.897 20.5303C319.897 22.5811 319.438 24.2127 318.518 25.4253C317.607 26.6379 316.349 27.2441 314.746 27.2441C313.2 27.2441 311.995 26.6867 311.133 25.5718L310.986 27H308.301V8.25H311.267V15.0615C312.122 14.0524 313.273 13.5479 314.722 13.5479C316.333 13.5479 317.598 14.146 318.518 15.3423C319.438 16.5386 319.897 18.2109 319.897 20.3594V20.5303ZM316.931 20.2739C316.931 18.8416 316.679 17.7674 316.174 17.0513C315.67 16.3351 314.937 15.9771 313.977 15.9771C312.691 15.9771 311.788 16.5386 311.267 17.6616V23.106C311.796 24.2534 312.708 24.8271 314.001 24.8271C314.929 24.8271 315.645 24.4813 316.15 23.7896C316.654 23.0978 316.915 22.0521 316.931 20.6523V20.2739ZM328.21 27.2441C326.331 27.2441 324.805 26.6541 323.633 25.4741C322.469 24.286 321.887 22.7072 321.887 20.7378V20.3716C321.887 19.0532 322.139 17.8773 322.644 16.8438C323.157 15.8021 323.873 14.9924 324.792 14.4146C325.712 13.8368 326.737 13.5479 327.869 13.5479C329.667 13.5479 331.055 14.1216 332.031 15.269C333.016 16.4165 333.508 18.04 333.508 20.1396V21.3359H324.878C324.967 22.4264 325.33 23.2891 325.964 23.9238C326.607 24.5586 327.413 24.876 328.381 24.876C329.74 24.876 330.847 24.3267 331.702 23.228L333.301 24.7539C332.772 25.5433 332.064 26.1577 331.177 26.5972C330.298 27.0285 329.309 27.2441 328.21 27.2441ZM327.856 15.9282C327.043 15.9282 326.383 16.2131 325.879 16.7827C325.382 17.3524 325.065 18.1458 324.927 19.1631H330.579V18.9434C330.514 17.9505 330.249 17.2018 329.785 16.6973C329.321 16.1846 328.678 15.9282 327.856 15.9282ZM342.737 16.502C342.346 16.4368 341.943 16.4043 341.528 16.4043C340.169 16.4043 339.254 16.9251 338.782 17.9668V27H335.815V13.792H338.647L338.721 15.269C339.437 14.1216 340.43 13.5479 341.699 13.5479C342.122 13.5479 342.472 13.6048 342.749 13.7188L342.737 16.502ZM352.014 23.4111C352.014 22.8822 351.794 22.4793 351.355 22.2026C350.924 21.9259 350.203 21.6818 349.194 21.4702C348.185 21.2586 347.343 20.9901 346.667 20.6646C345.186 19.9484 344.446 18.9108 344.446 17.5518C344.446 16.4124 344.926 15.4603 345.886 14.6953C346.847 13.9303 348.067 13.5479 349.548 13.5479C351.127 13.5479 352.401 13.9385 353.369 14.7197C354.346 15.501 354.834 16.5142 354.834 17.7593H351.868C351.868 17.1896 351.656 16.7176 351.233 16.3433C350.81 15.9608 350.248 15.7695 349.548 15.7695C348.897 15.7695 348.364 15.9201 347.949 16.2212C347.542 16.5223 347.339 16.9251 347.339 17.4297C347.339 17.8854 347.53 18.2394 347.913 18.4917C348.295 18.744 349.068 19.0003 350.232 19.2607C351.396 19.513 352.307 19.8182 352.966 20.1763C353.634 20.5262 354.126 20.9494 354.443 21.4458C354.769 21.9422 354.932 22.5444 354.932 23.2524C354.932 24.4406 354.439 25.4049 353.455 26.1455C352.47 26.8779 351.18 27.2441 349.585 27.2441C348.503 27.2441 347.538 27.0488 346.692 26.6582C345.846 26.2676 345.186 25.7305 344.714 25.0469C344.242 24.3633 344.006 23.6268 344.006 22.8374H346.887C346.928 23.5373 347.192 24.0785 347.681 24.4609C348.169 24.8353 348.816 25.0225 349.622 25.0225C350.403 25.0225 350.997 24.876 351.404 24.583C351.811 24.2819 352.014 23.8913 352.014 23.4111ZM360.449 15.2324C361.418 14.1094 362.642 13.5479 364.124 13.5479C366.939 13.5479 368.368 15.1551 368.408 18.3696V27H365.442V18.4795C365.442 17.568 365.243 16.9251 364.844 16.5508C364.453 16.1683 363.875 15.9771 363.11 15.9771C361.922 15.9771 361.035 16.506 360.449 17.564V27H357.483V8.25H360.449V15.2324ZM374.573 27H371.606V13.792H374.573V27ZM371.423 10.3618C371.423 9.90609 371.566 9.52767 371.851 9.22656C372.144 8.92546 372.559 8.7749 373.096 8.7749C373.633 8.7749 374.048 8.92546 374.341 9.22656C374.634 9.52767 374.78 9.90609 374.78 10.3618C374.78 10.8094 374.634 11.1838 374.341 11.4849C374.048 11.7778 373.633 11.9243 373.096 11.9243C372.559 11.9243 372.144 11.7778 371.851 11.4849C371.566 11.1838 371.423 10.8094 371.423 10.3618ZM389.38 20.5303C389.38 22.5729 388.916 24.2046 387.988 25.4253C387.061 26.6379 385.815 27.2441 384.253 27.2441C382.804 27.2441 381.645 26.7681 380.774 25.8159V32.0781H377.808V13.792H380.542L380.664 15.1348C381.535 14.0768 382.719 13.5479 384.216 13.5479C385.828 13.5479 387.089 14.1501 388 15.3545C388.92 16.5508 389.38 18.215 389.38 20.3472V20.5303ZM386.426 20.2739C386.426 18.9556 386.161 17.9098 385.632 17.1367C385.111 16.3636 384.363 15.9771 383.386 15.9771C382.174 15.9771 381.303 16.4775 380.774 17.4785V23.3379C381.311 24.3633 382.19 24.876 383.411 24.876C384.355 24.876 385.091 24.4976 385.62 23.7407C386.157 22.9757 386.426 21.8201 386.426 20.2739ZM102.563 56V44.9893H100.549V42.792H102.563V41.5835C102.563 40.1187 102.97 38.9875 103.784 38.1899C104.598 37.3924 105.737 36.9937 107.202 36.9937C107.723 36.9937 108.276 37.0669 108.862 37.2134L108.789 39.5327C108.464 39.4676 108.085 39.4351 107.654 39.4351C106.238 39.4351 105.53 40.1634 105.53 41.6201V42.792H108.215V44.9893H105.53V56H102.563ZM109.827 49.2739C109.827 47.98 110.083 46.8162 110.596 45.7827C111.108 44.741 111.829 43.9435 112.756 43.3901C113.684 42.8286 114.75 42.5479 115.955 42.5479C117.737 42.5479 119.181 43.1216 120.288 44.269C121.403 45.4165 122.005 46.9383 122.095 48.8345L122.107 49.5303C122.107 50.8324 121.855 51.9961 121.35 53.0215C120.854 54.0469 120.138 54.8403 119.202 55.4019C118.274 55.9634 117.2 56.2441 115.979 56.2441C114.115 56.2441 112.622 55.6257 111.499 54.3887C110.384 53.1436 109.827 51.4875 109.827 49.4204V49.2739ZM112.793 49.5303C112.793 50.8893 113.074 51.9554 113.635 52.7285C114.197 53.4935 114.978 53.876 115.979 53.876C116.98 53.876 117.757 53.4854 118.311 52.7041C118.872 51.9229 119.153 50.7795 119.153 49.2739C119.153 47.9393 118.864 46.8813 118.286 46.1001C117.716 45.3188 116.939 44.9282 115.955 44.9282C114.986 44.9282 114.217 45.3148 113.647 46.0879C113.078 46.8529 112.793 48.0003 112.793 49.5303ZM131.531 45.502C131.14 45.4368 130.737 45.4043 130.322 45.4043C128.963 45.4043 128.048 45.9251 127.576 46.9668V56H124.609V42.792H127.441L127.515 44.269C128.231 43.1216 129.224 42.5479 130.493 42.5479C130.916 42.5479 131.266 42.6048 131.543 42.7188L131.531 45.502ZM148.108 51.3613C148.108 50.6696 147.888 50.0999 147.449 49.6523C147.009 49.1966 146.277 48.7897 145.251 48.4316C144.226 48.0654 143.429 47.7277 142.859 47.4185C140.963 46.4012 140.015 44.8957 140.015 42.9019C140.015 41.5509 140.426 40.4401 141.248 39.5693C142.069 38.6986 143.184 38.1818 144.592 38.019V35.3579H146.545V38.0435C147.961 38.2469 149.056 38.8491 149.829 39.8501C150.602 40.8429 150.989 42.1369 150.989 43.7319H148.035C148.035 42.7065 147.803 41.9009 147.339 41.3149C146.883 40.7209 146.261 40.4238 145.471 40.4238C144.69 40.4238 144.08 40.6354 143.64 41.0586C143.201 41.4818 142.981 42.0881 142.981 42.8774C142.981 43.5854 143.197 44.1551 143.628 44.5864C144.067 45.0096 144.808 45.4124 145.85 45.7949C146.891 46.1774 147.709 46.5314 148.303 46.8569C148.897 47.1825 149.398 47.5568 149.805 47.98C150.212 48.395 150.525 48.8752 150.745 49.4204C150.964 49.9657 151.074 50.6045 151.074 51.3369C151.074 52.7122 150.651 53.8271 149.805 54.6816C148.966 55.5361 147.795 56.0407 146.289 56.1953V58.5757H144.348V56.2075C142.737 56.0285 141.496 55.4507 140.625 54.4741C139.762 53.4976 139.331 52.2036 139.331 50.5923H142.297C142.297 51.6177 142.554 52.4111 143.066 52.9727C143.587 53.5342 144.32 53.8149 145.264 53.8149C146.191 53.8149 146.895 53.5911 147.375 53.1436C147.864 52.696 148.108 52.1019 148.108 51.3613ZM154.443 47.1865L155.408 38.2266H164.954V40.79H157.874L157.385 45.0381C158.207 44.5661 159.135 44.3301 160.168 44.3301C161.861 44.3301 163.175 44.8713 164.111 45.9536C165.055 47.036 165.527 48.4927 165.527 50.3237C165.527 52.1304 165.007 53.5708 163.965 54.645C162.923 55.7111 161.495 56.2441 159.68 56.2441C158.053 56.2441 156.702 55.7843 155.627 54.8647C154.561 53.937 153.984 52.7163 153.894 51.2026H156.763C156.877 52.0653 157.186 52.7285 157.69 53.1924C158.195 53.6481 158.854 53.876 159.668 53.876C160.579 53.876 161.287 53.5505 161.792 52.8994C162.305 52.2484 162.561 51.3613 162.561 50.2383C162.561 49.1559 162.28 48.3014 161.719 47.6748C161.157 47.04 160.384 46.7227 159.399 46.7227C158.862 46.7227 158.407 46.7959 158.032 46.9424C157.658 47.0807 157.251 47.3574 156.812 47.7725L154.443 47.1865ZM185.84 49.5303C185.84 51.5729 185.376 53.2046 184.448 54.4253C183.521 55.6379 182.275 56.2441 180.713 56.2441C179.264 56.2441 178.105 55.7681 177.234 54.8159V61.0781H174.268V42.792H177.002L177.124 44.1348C177.995 43.0768 179.179 42.5479 180.676 42.5479C182.288 42.5479 183.549 43.1501 184.46 44.3545C185.38 45.5508 185.84 47.215 185.84 49.3472V49.5303ZM182.886 49.2739C182.886 47.9556 182.621 46.9098 182.092 46.1367C181.571 45.3636 180.823 44.9771 179.846 44.9771C178.634 44.9771 177.763 45.4775 177.234 46.4785V52.3379C177.771 53.3633 178.65 53.876 179.871 53.876C180.815 53.876 181.551 53.4976 182.08 52.7407C182.617 51.9757 182.886 50.8201 182.886 49.2739ZM194.177 56.2441C192.297 56.2441 190.771 55.6541 189.6 54.4741C188.436 53.286 187.854 51.7072 187.854 49.7378V49.3716C187.854 48.0532 188.106 46.8773 188.611 45.8438C189.124 44.8021 189.84 43.9924 190.759 43.4146C191.679 42.8368 192.704 42.5479 193.835 42.5479C195.634 42.5479 197.021 43.1216 197.998 44.269C198.983 45.4165 199.475 47.04 199.475 49.1396V50.3359H190.845C190.934 51.4264 191.296 52.2891 191.931 52.9238C192.574 53.5586 193.38 53.876 194.348 53.876C195.707 53.876 196.814 53.3267 197.668 52.228L199.268 53.7539C198.739 54.5433 198.031 55.1577 197.144 55.5972C196.265 56.0285 195.276 56.2441 194.177 56.2441ZM193.823 44.9282C193.009 44.9282 192.35 45.2131 191.846 45.7827C191.349 46.3524 191.032 47.1458 190.894 48.1631H196.545V47.9434C196.48 46.9505 196.216 46.2018 195.752 45.6973C195.288 45.1846 194.645 44.9282 193.823 44.9282ZM208.704 45.502C208.313 45.4368 207.91 45.4043 207.495 45.4043C206.136 45.4043 205.221 45.9251 204.749 46.9668V56H201.782V42.792H204.614L204.688 44.269C205.404 43.1216 206.396 42.5479 207.666 42.5479C208.089 42.5479 208.439 42.6048 208.716 42.7188L208.704 45.502ZM219.592 42.792L219.678 44.1714C220.605 43.089 221.875 42.5479 223.486 42.5479C225.252 42.5479 226.461 43.2233 227.112 44.5742C228.072 43.2233 229.423 42.5479 231.165 42.5479C232.621 42.5479 233.704 42.9507 234.412 43.7563C235.128 44.562 235.494 45.7502 235.51 47.3208V56H232.544V47.4062C232.544 46.568 232.361 45.9536 231.995 45.563C231.628 45.1724 231.022 44.9771 230.176 44.9771C229.5 44.9771 228.947 45.1602 228.516 45.5264C228.092 45.8844 227.795 46.3564 227.625 46.9424L227.637 56H224.67V47.3086C224.63 45.7542 223.836 44.9771 222.29 44.9771C221.102 44.9771 220.26 45.4613 219.763 46.4297V56H216.797V42.792H219.592ZM238 49.2739C238 47.98 238.257 46.8162 238.77 45.7827C239.282 44.741 240.002 43.9435 240.93 43.3901C241.858 42.8286 242.924 42.5479 244.128 42.5479C245.911 42.5479 247.355 43.1216 248.462 44.269C249.577 45.4165 250.179 46.9383 250.269 48.8345L250.281 49.5303C250.281 50.8324 250.028 51.9961 249.524 53.0215C249.028 54.0469 248.311 54.8403 247.375 55.4019C246.448 55.9634 245.374 56.2441 244.153 56.2441C242.289 56.2441 240.796 55.6257 239.673 54.3887C238.558 53.1436 238 51.4875 238 49.4204V49.2739ZM240.967 49.5303C240.967 50.8893 241.248 51.9554 241.809 52.7285C242.371 53.4935 243.152 53.876 244.153 53.876C245.154 53.876 245.931 53.4854 246.484 52.7041C247.046 51.9229 247.327 50.7795 247.327 49.2739C247.327 47.9393 247.038 46.8813 246.46 46.1001C245.89 45.3188 245.113 44.9282 244.128 44.9282C243.16 44.9282 242.391 45.3148 241.821 46.0879C241.252 46.8529 240.967 48.0003 240.967 49.5303ZM255.542 42.792L255.627 44.3179C256.604 43.1379 257.886 42.5479 259.473 42.5479C262.223 42.5479 263.623 44.1226 263.672 47.272V56H260.706V47.4429C260.706 46.6047 260.522 45.9862 260.156 45.5874C259.798 45.1805 259.208 44.9771 258.386 44.9771C257.19 44.9771 256.299 45.5182 255.713 46.6006V56H252.747V42.792H255.542ZM270.422 39.5815V42.792H272.754V44.9893H270.422V52.3623C270.422 52.8669 270.52 53.2331 270.715 53.4609C270.919 53.6807 271.277 53.7905 271.79 53.7905C272.131 53.7905 272.477 53.7498 272.827 53.6685V55.9634C272.152 56.1506 271.501 56.2441 270.874 56.2441C268.595 56.2441 267.456 54.9868 267.456 52.4722V44.9893H265.283V42.792H267.456V39.5815H270.422ZM277.954 44.2324C278.923 43.1094 280.147 42.5479 281.628 42.5479C284.444 42.5479 285.872 44.1551 285.913 47.3696V56H282.947V47.4795C282.947 46.568 282.747 45.9251 282.349 45.5508C281.958 45.1683 281.38 44.9771 280.615 44.9771C279.427 44.9771 278.54 45.506 277.954 46.564V56H274.988V37.25H277.954V44.2324ZM290.771 52.875C291.325 52.875 291.752 53.0337 292.053 53.3511C292.354 53.6603 292.505 54.0509 292.505 54.5229C292.505 54.9868 292.354 55.3734 292.053 55.6826C291.752 55.9837 291.325 56.1343 290.771 56.1343C290.243 56.1343 289.823 55.9837 289.514 55.6826C289.205 55.3815 289.05 54.995 289.05 54.5229C289.05 54.0509 289.201 53.6603 289.502 53.3511C289.803 53.0337 290.226 52.875 290.771 52.875Z" fill="#313131"/>
<circle cx="30.5" cy="141.5" r="30.5" fill="#D63447"/>
<path d="M39.9961 157H21.3633V154.402L31.207 143.465C32.6654 141.811 33.668 140.47 34.2148 139.441C34.7747 138.4 35.0547 137.326 35.0547 136.219C35.0547 134.734 34.6055 133.517 33.707 132.566C32.8086 131.616 31.6107 131.141 30.1133 131.141C28.3164 131.141 26.9167 131.655 25.9141 132.684C24.9245 133.699 24.4297 135.118 24.4297 136.941H20.8164C20.8164 134.324 21.6562 132.208 23.3359 130.594C25.0286 128.979 27.2878 128.172 30.1133 128.172C32.7565 128.172 34.8464 128.868 36.3828 130.262C37.9193 131.642 38.6875 133.484 38.6875 135.789C38.6875 138.589 36.9036 141.922 33.3359 145.789L25.7188 154.051H39.9961V157Z" fill="white"/>
<path d="M105.066 150H101.99V132.227H105.066V150ZM111.328 136.792L111.414 138.318C112.39 137.138 113.672 136.548 115.259 136.548C118.009 136.548 119.409 138.123 119.458 141.272V150H116.492V141.443C116.492 140.605 116.309 139.986 115.942 139.587C115.584 139.181 114.994 138.977 114.172 138.977C112.976 138.977 112.085 139.518 111.499 140.601V150H108.533V136.792H111.328ZM129.895 146.411C129.895 145.882 129.675 145.479 129.236 145.203C128.805 144.926 128.084 144.682 127.075 144.47C126.066 144.259 125.224 143.99 124.548 143.665C123.067 142.948 122.327 141.911 122.327 140.552C122.327 139.412 122.807 138.46 123.767 137.695C124.727 136.93 125.948 136.548 127.429 136.548C129.008 136.548 130.282 136.938 131.25 137.72C132.227 138.501 132.715 139.514 132.715 140.759H129.749C129.749 140.19 129.537 139.718 129.114 139.343C128.691 138.961 128.129 138.77 127.429 138.77C126.778 138.77 126.245 138.92 125.83 139.221C125.423 139.522 125.22 139.925 125.22 140.43C125.22 140.885 125.411 141.239 125.793 141.492C126.176 141.744 126.949 142 128.113 142.261C129.277 142.513 130.188 142.818 130.847 143.176C131.514 143.526 132.007 143.949 132.324 144.446C132.65 144.942 132.812 145.544 132.812 146.252C132.812 147.441 132.32 148.405 131.335 149.146C130.351 149.878 129.061 150.244 127.466 150.244C126.383 150.244 125.419 150.049 124.573 149.658C123.726 149.268 123.067 148.73 122.595 148.047C122.123 147.363 121.887 146.627 121.887 145.837H124.768C124.809 146.537 125.073 147.078 125.562 147.461C126.05 147.835 126.697 148.022 127.502 148.022C128.284 148.022 128.878 147.876 129.285 147.583C129.692 147.282 129.895 146.891 129.895 146.411ZM139.124 133.582V136.792H141.455V138.989H139.124V146.362C139.124 146.867 139.221 147.233 139.417 147.461C139.62 147.681 139.978 147.791 140.491 147.791C140.833 147.791 141.178 147.75 141.528 147.668V149.963C140.853 150.151 140.202 150.244 139.575 150.244C137.297 150.244 136.157 148.987 136.157 146.472V138.989H133.984V136.792H136.157V133.582H139.124ZM151.624 150C151.493 149.748 151.379 149.337 151.282 148.767C150.338 149.752 149.182 150.244 147.815 150.244C146.488 150.244 145.406 149.866 144.568 149.109C143.73 148.352 143.311 147.416 143.311 146.301C143.311 144.893 143.831 143.815 144.873 143.066C145.923 142.31 147.42 141.931 149.365 141.931H151.184V141.064C151.184 140.381 150.993 139.836 150.61 139.429C150.228 139.014 149.646 138.806 148.865 138.806C148.189 138.806 147.636 138.977 147.205 139.319C146.773 139.653 146.558 140.08 146.558 140.601H143.591C143.591 139.876 143.831 139.201 144.312 138.574C144.792 137.939 145.443 137.443 146.265 137.085C147.095 136.727 148.018 136.548 149.036 136.548C150.582 136.548 151.815 136.938 152.734 137.72C153.654 138.493 154.126 139.583 154.15 140.991V146.948C154.15 148.136 154.317 149.084 154.651 149.792V150H151.624ZM148.364 147.864C148.95 147.864 149.5 147.721 150.012 147.437C150.533 147.152 150.924 146.769 151.184 146.289V143.799H149.585C148.486 143.799 147.66 143.99 147.107 144.373C146.554 144.755 146.277 145.296 146.277 145.996C146.277 146.566 146.464 147.021 146.838 147.363C147.221 147.697 147.729 147.864 148.364 147.864ZM160.413 150H157.446V131.25H160.413V150ZM166.809 150H163.843V131.25H166.809V150ZM179.993 133.582V136.792H182.324V138.989H179.993V146.362C179.993 146.867 180.09 147.233 180.286 147.461C180.489 147.681 180.847 147.791 181.36 147.791C181.702 147.791 182.048 147.75 182.397 147.668V149.963C181.722 150.151 181.071 150.244 180.444 150.244C178.166 150.244 177.026 148.987 177.026 146.472V138.989H174.854V136.792H177.026V133.582H179.993ZM187.524 138.232C188.493 137.109 189.718 136.548 191.199 136.548C194.014 136.548 195.443 138.155 195.483 141.37V150H192.517V141.479C192.517 140.568 192.318 139.925 191.919 139.551C191.528 139.168 190.951 138.977 190.186 138.977C188.997 138.977 188.11 139.506 187.524 140.564V150H184.558V131.25H187.524V138.232ZM204.309 150.244C202.429 150.244 200.903 149.654 199.731 148.474C198.568 147.286 197.986 145.707 197.986 143.738V143.372C197.986 142.053 198.238 140.877 198.743 139.844C199.255 138.802 199.972 137.992 200.891 137.415C201.811 136.837 202.836 136.548 203.967 136.548C205.766 136.548 207.153 137.122 208.13 138.269C209.115 139.417 209.607 141.04 209.607 143.14V144.336H200.977C201.066 145.426 201.428 146.289 202.063 146.924C202.706 147.559 203.512 147.876 204.48 147.876C205.839 147.876 206.946 147.327 207.8 146.228L209.399 147.754C208.87 148.543 208.162 149.158 207.275 149.597C206.396 150.028 205.408 150.244 204.309 150.244ZM203.955 138.928C203.141 138.928 202.482 139.213 201.978 139.783C201.481 140.352 201.164 141.146 201.025 142.163H206.677V141.943C206.612 140.951 206.348 140.202 205.884 139.697C205.42 139.185 204.777 138.928 203.955 138.928ZM231.995 144.214C231.816 146.11 231.116 147.591 229.895 148.657C228.674 149.715 227.051 150.244 225.024 150.244C223.608 150.244 222.359 149.91 221.277 149.243C220.203 148.568 219.373 147.611 218.787 146.375C218.201 145.138 217.896 143.701 217.871 142.065V140.405C217.871 138.729 218.168 137.252 218.762 135.974C219.356 134.696 220.207 133.712 221.313 133.02C222.428 132.328 223.714 131.982 225.171 131.982C227.132 131.982 228.711 132.515 229.907 133.582C231.104 134.648 231.799 136.153 231.995 138.098H228.918C228.772 136.82 228.398 135.901 227.795 135.339C227.201 134.77 226.326 134.485 225.171 134.485C223.828 134.485 222.795 134.977 222.07 135.962C221.354 136.938 220.988 138.375 220.972 140.271V141.846C220.972 143.766 221.313 145.231 221.997 146.24C222.689 147.249 223.698 147.754 225.024 147.754C226.237 147.754 227.148 147.481 227.759 146.936C228.369 146.391 228.756 145.483 228.918 144.214H231.995ZM233.923 143.274C233.923 141.98 234.18 140.816 234.692 139.783C235.205 138.741 235.925 137.944 236.853 137.39C237.781 136.829 238.847 136.548 240.051 136.548C241.833 136.548 243.278 137.122 244.385 138.269C245.5 139.417 246.102 140.938 246.191 142.834L246.204 143.53C246.204 144.832 245.951 145.996 245.447 147.021C244.95 148.047 244.234 148.84 243.298 149.402C242.371 149.963 241.296 150.244 240.076 150.244C238.212 150.244 236.719 149.626 235.596 148.389C234.481 147.144 233.923 145.487 233.923 143.42V143.274ZM236.89 143.53C236.89 144.889 237.17 145.955 237.732 146.729C238.293 147.493 239.075 147.876 240.076 147.876C241.077 147.876 241.854 147.485 242.407 146.704C242.969 145.923 243.25 144.779 243.25 143.274C243.25 141.939 242.961 140.881 242.383 140.1C241.813 139.319 241.036 138.928 240.051 138.928C239.083 138.928 238.314 139.315 237.744 140.088C237.174 140.853 236.89 142 236.89 143.53ZM251.868 150H248.901V136.792H251.868V150ZM248.718 133.362C248.718 132.906 248.861 132.528 249.146 132.227C249.438 131.925 249.854 131.775 250.391 131.775C250.928 131.775 251.343 131.925 251.636 132.227C251.929 132.528 252.075 132.906 252.075 133.362C252.075 133.809 251.929 134.184 251.636 134.485C251.343 134.778 250.928 134.924 250.391 134.924C249.854 134.924 249.438 134.778 249.146 134.485C248.861 134.184 248.718 133.809 248.718 133.362ZM258.264 150H255.298V131.25H258.264V150ZM278.406 142.065H271.106V147.534H279.639V150H268.018V132.227H279.553V134.717H271.106V139.624H278.406V142.065ZM286.609 141.138L289.124 136.792H292.419L288.379 143.298L292.554 150H289.282L286.646 145.483L284.021 150H280.725L284.9 143.298L280.872 136.792H284.143L286.609 141.138ZM298.157 133.582V136.792H300.488V138.989H298.157V146.362C298.157 146.867 298.254 147.233 298.45 147.461C298.653 147.681 299.011 147.791 299.524 147.791C299.866 147.791 300.212 147.75 300.562 147.668V149.963C299.886 150.151 299.235 150.244 298.608 150.244C296.33 150.244 295.19 148.987 295.19 146.472V138.989H293.018V136.792H295.19V133.582H298.157ZM308.582 150.244C306.702 150.244 305.176 149.654 304.004 148.474C302.84 147.286 302.258 145.707 302.258 143.738V143.372C302.258 142.053 302.511 140.877 303.015 139.844C303.528 138.802 304.244 137.992 305.164 137.415C306.083 136.837 307.109 136.548 308.24 136.548C310.038 136.548 311.426 137.122 312.402 138.269C313.387 139.417 313.879 141.04 313.879 143.14V144.336H305.249C305.339 145.426 305.701 146.289 306.335 146.924C306.978 147.559 307.784 147.876 308.752 147.876C310.111 147.876 311.218 147.327 312.073 146.228L313.672 147.754C313.143 148.543 312.435 149.158 311.548 149.597C310.669 150.028 309.68 150.244 308.582 150.244ZM308.228 138.928C307.414 138.928 306.755 139.213 306.25 139.783C305.754 140.352 305.436 141.146 305.298 142.163H310.95V141.943C310.885 140.951 310.62 140.202 310.156 139.697C309.692 139.185 309.049 138.928 308.228 138.928ZM318.945 136.792L319.031 138.318C320.007 137.138 321.289 136.548 322.876 136.548C325.627 136.548 327.026 138.123 327.075 141.272V150H324.109V141.443C324.109 140.605 323.926 139.986 323.56 139.587C323.201 139.181 322.611 138.977 321.79 138.977C320.593 138.977 319.702 139.518 319.116 140.601V150H316.15V136.792H318.945ZM337.512 146.411C337.512 145.882 337.292 145.479 336.853 145.203C336.422 144.926 335.701 144.682 334.692 144.47C333.683 144.259 332.841 143.99 332.166 143.665C330.684 142.948 329.944 141.911 329.944 140.552C329.944 139.412 330.424 138.46 331.384 137.695C332.345 136.93 333.565 136.548 335.046 136.548C336.625 136.548 337.899 136.938 338.867 137.72C339.844 138.501 340.332 139.514 340.332 140.759H337.366C337.366 140.19 337.154 139.718 336.731 139.343C336.308 138.961 335.746 138.77 335.046 138.77C334.395 138.77 333.862 138.92 333.447 139.221C333.04 139.522 332.837 139.925 332.837 140.43C332.837 140.885 333.028 141.239 333.411 141.492C333.793 141.744 334.566 142 335.73 142.261C336.894 142.513 337.805 142.818 338.464 143.176C339.132 143.526 339.624 143.949 339.941 144.446C340.267 144.942 340.43 145.544 340.43 146.252C340.43 147.441 339.937 148.405 338.953 149.146C337.968 149.878 336.678 150.244 335.083 150.244C334.001 150.244 333.036 150.049 332.19 149.658C331.344 149.268 330.684 148.73 330.212 148.047C329.74 147.363 329.504 146.627 329.504 145.837H332.385C332.426 146.537 332.69 147.078 333.179 147.461C333.667 147.835 334.314 148.022 335.12 148.022C335.901 148.022 336.495 147.876 336.902 147.583C337.309 147.282 337.512 146.891 337.512 146.411ZM346.179 150H343.213V136.792H346.179V150ZM343.03 133.362C343.03 132.906 343.172 132.528 343.457 132.227C343.75 131.925 344.165 131.775 344.702 131.775C345.239 131.775 345.654 131.925 345.947 132.227C346.24 132.528 346.387 132.906 346.387 133.362C346.387 133.809 346.24 134.184 345.947 134.485C345.654 134.778 345.239 134.924 344.702 134.924C344.165 134.924 343.75 134.778 343.457 134.485C343.172 134.184 343.03 133.809 343.03 133.362ZM348.865 143.274C348.865 141.98 349.121 140.816 349.634 139.783C350.146 138.741 350.867 137.944 351.794 137.39C352.722 136.829 353.788 136.548 354.993 136.548C356.775 136.548 358.219 137.122 359.326 138.269C360.441 139.417 361.043 140.938 361.133 142.834L361.145 143.53C361.145 144.832 360.893 145.996 360.388 147.021C359.892 148.047 359.176 148.84 358.24 149.402C357.312 149.963 356.238 150.244 355.017 150.244C353.153 150.244 351.66 149.626 350.537 148.389C349.422 147.144 348.865 145.487 348.865 143.42V143.274ZM351.831 143.53C351.831 144.889 352.112 145.955 352.673 146.729C353.235 147.493 354.016 147.876 355.017 147.876C356.018 147.876 356.795 147.485 357.349 146.704C357.91 145.923 358.191 144.779 358.191 143.274C358.191 141.939 357.902 140.881 357.324 140.1C356.755 139.319 355.977 138.928 354.993 138.928C354.024 138.928 353.255 139.315 352.686 140.088C352.116 140.853 351.831 142 351.831 143.53ZM366.406 136.792L366.492 138.318C367.468 137.138 368.75 136.548 370.337 136.548C373.088 136.548 374.487 138.123 374.536 141.272V150H371.57V141.443C371.57 140.605 371.387 139.986 371.021 139.587C370.662 139.181 370.072 138.977 369.25 138.977C368.054 138.977 367.163 139.518 366.577 140.601V150H363.611V136.792H366.406ZM379.419 146.875C379.972 146.875 380.4 147.034 380.701 147.351C381.002 147.66 381.152 148.051 381.152 148.523C381.152 148.987 381.002 149.373 380.701 149.683C380.4 149.984 379.972 150.134 379.419 150.134C378.89 150.134 378.471 149.984 378.162 149.683C377.852 149.382 377.698 148.995 377.698 148.523C377.698 148.051 377.848 147.66 378.149 147.351C378.451 147.034 378.874 146.875 379.419 146.875Z" fill="#313131"/>
<circle cx="30.5" cy="250.5" r="30.5" fill="#D63447"/>
<path opacity="0.9" d="M26.6172 250.023H29.332C31.0378 249.997 32.3789 249.548 33.3555 248.676C34.332 247.803 34.8203 246.625 34.8203 245.141C34.8203 241.807 33.1602 240.141 29.8398 240.141C28.2773 240.141 27.0273 240.59 26.0898 241.488C25.1654 242.374 24.7031 243.552 24.7031 245.023H21.0898C21.0898 242.771 21.9102 240.902 23.5508 239.418C25.2044 237.921 27.3008 237.172 29.8398 237.172C32.5221 237.172 34.625 237.882 36.1484 239.301C37.6719 240.72 38.4336 242.693 38.4336 245.219C38.4336 246.456 38.0299 247.654 37.2227 248.812C36.4284 249.971 35.3411 250.837 33.9609 251.41C35.5234 251.905 36.7279 252.725 37.5742 253.871C38.4336 255.017 38.8633 256.417 38.8633 258.07C38.8633 260.622 38.0299 262.647 36.3633 264.145C34.6966 265.642 32.5286 266.391 29.8594 266.391C27.1901 266.391 25.0156 265.668 23.3359 264.223C21.6693 262.777 20.8359 260.87 20.8359 258.5H24.4688C24.4688 259.997 24.957 261.195 25.9336 262.094C26.9102 262.992 28.2188 263.441 29.8594 263.441C31.6042 263.441 32.9388 262.986 33.8633 262.074C34.7878 261.163 35.25 259.854 35.25 258.148C35.25 256.495 34.7422 255.225 33.7266 254.34C32.7109 253.454 31.2461 252.999 29.332 252.973H26.6172V250.023Z" fill="white"/>
<path d="M104.895 242.534H112.964V245H101.807V227.227H104.895V242.534ZM114.49 238.274C114.49 236.98 114.746 235.816 115.259 234.783C115.771 233.741 116.492 232.944 117.419 232.39C118.347 231.829 119.413 231.548 120.618 231.548C122.4 231.548 123.844 232.122 124.951 233.269C126.066 234.417 126.668 235.938 126.758 237.834L126.77 238.53C126.77 239.832 126.518 240.996 126.013 242.021C125.517 243.047 124.801 243.84 123.865 244.402C122.937 244.963 121.863 245.244 120.642 245.244C118.778 245.244 117.285 244.626 116.162 243.389C115.047 242.144 114.49 240.487 114.49 238.42V238.274ZM117.456 238.53C117.456 239.889 117.737 240.955 118.298 241.729C118.86 242.493 119.641 242.876 120.642 242.876C121.643 242.876 122.42 242.485 122.974 241.704C123.535 240.923 123.816 239.779 123.816 238.274C123.816 236.939 123.527 235.881 122.949 235.1C122.38 234.319 121.602 233.928 120.618 233.928C119.649 233.928 118.88 234.315 118.311 235.088C117.741 235.853 117.456 237 117.456 238.53ZM128.76 238.298C128.76 236.248 129.24 234.612 130.2 233.391C131.169 232.162 132.45 231.548 134.045 231.548C135.551 231.548 136.735 232.073 137.598 233.123L137.732 231.792H140.405V244.597C140.405 246.331 139.864 247.698 138.782 248.699C137.708 249.7 136.255 250.2 134.424 250.2C133.455 250.2 132.507 249.997 131.58 249.59C130.66 249.191 129.96 248.666 129.48 248.015L130.884 246.233C131.795 247.315 132.918 247.856 134.253 247.856C135.238 247.856 136.015 247.588 136.584 247.051C137.154 246.522 137.439 245.741 137.439 244.707V243.816C136.584 244.768 135.445 245.244 134.021 245.244C132.475 245.244 131.209 244.63 130.225 243.401C129.248 242.172 128.76 240.471 128.76 238.298ZM131.714 238.555C131.714 239.881 131.982 240.927 132.52 241.692C133.065 242.449 133.818 242.827 134.778 242.827C135.974 242.827 136.861 242.314 137.439 241.289V235.479C136.877 234.478 135.999 233.977 134.802 233.977C133.826 233.977 133.065 234.364 132.52 235.137C131.982 235.91 131.714 237.049 131.714 238.555ZM146.619 245H143.652V231.792H146.619V245ZM143.469 228.362C143.469 227.906 143.612 227.528 143.896 227.227C144.189 226.925 144.604 226.775 145.142 226.775C145.679 226.775 146.094 226.925 146.387 227.227C146.68 227.528 146.826 227.906 146.826 228.362C146.826 228.809 146.68 229.184 146.387 229.485C146.094 229.778 145.679 229.924 145.142 229.924C144.604 229.924 144.189 229.778 143.896 229.485C143.612 229.184 143.469 228.809 143.469 228.362ZM152.612 231.792L152.698 233.318C153.674 232.138 154.956 231.548 156.543 231.548C159.294 231.548 160.693 233.123 160.742 236.272V245H157.776V236.443C157.776 235.605 157.593 234.986 157.227 234.587C156.868 234.181 156.278 233.977 155.457 233.977C154.26 233.977 153.369 234.518 152.783 235.601V245H149.817V231.792H152.612ZM173.157 245H170.19V231.792H173.157V245ZM170.007 228.362C170.007 227.906 170.15 227.528 170.435 227.227C170.728 226.925 171.143 226.775 171.68 226.775C172.217 226.775 172.632 226.925 172.925 227.227C173.218 227.528 173.364 227.906 173.364 228.362C173.364 228.809 173.218 229.184 172.925 229.485C172.632 229.778 172.217 229.924 171.68 229.924C171.143 229.924 170.728 229.778 170.435 229.485C170.15 229.184 170.007 228.809 170.007 228.362ZM179.15 231.792L179.236 233.318C180.212 232.138 181.494 231.548 183.081 231.548C185.832 231.548 187.231 233.123 187.28 236.272V245H184.314V236.443C184.314 235.605 184.131 234.986 183.765 234.587C183.407 234.181 182.817 233.977 181.995 233.977C180.798 233.977 179.907 234.518 179.321 235.601V245H176.355V231.792H179.15ZM194.031 228.582V231.792H196.362V233.989H194.031V241.362C194.031 241.867 194.128 242.233 194.324 242.461C194.527 242.681 194.885 242.791 195.398 242.791C195.74 242.791 196.086 242.75 196.436 242.668V244.963C195.76 245.151 195.109 245.244 194.482 245.244C192.204 245.244 191.064 243.987 191.064 241.472V233.989H188.892V231.792H191.064V228.582H194.031ZM197.717 238.274C197.717 236.98 197.974 235.816 198.486 234.783C198.999 233.741 199.719 232.944 200.647 232.39C201.575 231.829 202.641 231.548 203.845 231.548C205.627 231.548 207.072 232.122 208.179 233.269C209.294 234.417 209.896 235.938 209.985 237.834L209.998 238.53C209.998 239.832 209.745 240.996 209.241 242.021C208.744 243.047 208.028 243.84 207.092 244.402C206.165 244.963 205.09 245.244 203.87 245.244C202.006 245.244 200.513 244.626 199.39 243.389C198.275 242.144 197.717 240.487 197.717 238.42V238.274ZM200.684 238.53C200.684 239.889 200.964 240.955 201.526 241.729C202.087 242.493 202.869 242.876 203.87 242.876C204.871 242.876 205.648 242.485 206.201 241.704C206.763 240.923 207.043 239.779 207.043 238.274C207.043 236.939 206.755 235.881 206.177 235.1C205.607 234.319 204.83 233.928 203.845 233.928C202.877 233.928 202.108 234.315 201.538 235.088C200.968 235.853 200.684 237 200.684 238.53ZM222.449 228.582V231.792H224.78V233.989H222.449V241.362C222.449 241.867 222.546 242.233 222.742 242.461C222.945 242.681 223.303 242.791 223.816 242.791C224.158 242.791 224.504 242.75 224.854 242.668V244.963C224.178 245.151 223.527 245.244 222.9 245.244C220.622 245.244 219.482 243.987 219.482 241.472V233.989H217.31V231.792H219.482V228.582H222.449ZM229.98 233.232C230.949 232.109 232.174 231.548 233.655 231.548C236.471 231.548 237.899 233.155 237.939 236.37V245H234.973V236.479C234.973 235.568 234.774 234.925 234.375 234.551C233.984 234.168 233.407 233.977 232.642 233.977C231.453 233.977 230.566 234.506 229.98 235.564V245H227.014V226.25H229.98V233.232ZM246.765 245.244C244.885 245.244 243.359 244.654 242.188 243.474C241.024 242.286 240.442 240.707 240.442 238.738V238.372C240.442 237.053 240.694 235.877 241.199 234.844C241.711 233.802 242.428 232.992 243.347 232.415C244.267 231.837 245.292 231.548 246.423 231.548C248.222 231.548 249.609 232.122 250.586 233.269C251.571 234.417 252.063 236.04 252.063 238.14V239.336H243.433C243.522 240.426 243.884 241.289 244.519 241.924C245.162 242.559 245.968 242.876 246.936 242.876C248.295 242.876 249.402 242.327 250.256 241.228L251.855 242.754C251.326 243.543 250.618 244.158 249.731 244.597C248.853 245.028 247.864 245.244 246.765 245.244ZM246.411 233.928C245.597 233.928 244.938 234.213 244.434 234.783C243.937 235.352 243.62 236.146 243.481 237.163H249.133V236.943C249.068 235.951 248.804 235.202 248.34 234.697C247.876 234.185 247.233 233.928 246.411 233.928ZM274.451 239.214C274.272 241.11 273.572 242.591 272.351 243.657C271.13 244.715 269.507 245.244 267.48 245.244C266.064 245.244 264.815 244.91 263.733 244.243C262.659 243.568 261.829 242.611 261.243 241.375C260.657 240.138 260.352 238.701 260.327 237.065V235.405C260.327 233.729 260.624 232.252 261.218 230.974C261.812 229.696 262.663 228.712 263.77 228.02C264.884 227.328 266.17 226.982 267.627 226.982C269.588 226.982 271.167 227.515 272.363 228.582C273.56 229.648 274.255 231.153 274.451 233.098H271.375C271.228 231.82 270.854 230.901 270.251 230.339C269.657 229.77 268.783 229.485 267.627 229.485C266.284 229.485 265.251 229.977 264.526 230.962C263.81 231.938 263.444 233.375 263.428 235.271V236.846C263.428 238.766 263.77 240.231 264.453 241.24C265.145 242.249 266.154 242.754 267.48 242.754C268.693 242.754 269.604 242.481 270.215 241.936C270.825 241.391 271.212 240.483 271.375 239.214H274.451ZM276.379 238.274C276.379 236.98 276.636 235.816 277.148 234.783C277.661 233.741 278.381 232.944 279.309 232.39C280.237 231.829 281.303 231.548 282.507 231.548C284.29 231.548 285.734 232.122 286.841 233.269C287.956 234.417 288.558 235.938 288.647 237.834L288.66 238.53C288.66 239.832 288.407 240.996 287.903 242.021C287.406 243.047 286.69 243.84 285.754 244.402C284.827 244.963 283.752 245.244 282.532 245.244C280.668 245.244 279.175 244.626 278.052 243.389C276.937 242.144 276.379 240.487 276.379 238.42V238.274ZM279.346 238.53C279.346 239.889 279.626 240.955 280.188 241.729C280.75 242.493 281.531 242.876 282.532 242.876C283.533 242.876 284.31 242.485 284.863 241.704C285.425 240.923 285.706 239.779 285.706 238.274C285.706 236.939 285.417 235.881 284.839 235.1C284.269 234.319 283.492 233.928 282.507 233.928C281.539 233.928 280.77 234.315 280.2 235.088C279.631 235.853 279.346 237 279.346 238.53ZM294.324 245H291.357V231.792H294.324V245ZM291.174 228.362C291.174 227.906 291.317 227.528 291.602 227.227C291.895 226.925 292.31 226.775 292.847 226.775C293.384 226.775 293.799 226.925 294.092 227.227C294.385 227.528 294.531 227.906 294.531 228.362C294.531 228.809 294.385 229.184 294.092 229.485C293.799 229.778 293.384 229.924 292.847 229.924C292.31 229.924 291.895 229.778 291.602 229.485C291.317 229.184 291.174 228.809 291.174 228.362ZM300.72 245H297.754V226.25H300.72V245ZM316.003 245.244C314.124 245.244 312.598 244.654 311.426 243.474C310.262 242.286 309.68 240.707 309.68 238.738V238.372C309.68 237.053 309.932 235.877 310.437 234.844C310.95 233.802 311.666 232.992 312.585 232.415C313.505 231.837 314.53 231.548 315.662 231.548C317.46 231.548 318.848 232.122 319.824 233.269C320.809 234.417 321.301 236.04 321.301 238.14V239.336H312.671C312.76 240.426 313.123 241.289 313.757 241.924C314.4 242.559 315.206 242.876 316.174 242.876C317.533 242.876 318.64 242.327 319.495 241.228L321.094 242.754C320.565 243.543 319.857 244.158 318.97 244.597C318.091 245.028 317.102 245.244 316.003 245.244ZM315.649 233.928C314.836 233.928 314.176 234.213 313.672 234.783C313.175 235.352 312.858 236.146 312.72 237.163H318.372V236.943C318.306 235.951 318.042 235.202 317.578 234.697C317.114 234.185 316.471 233.928 315.649 233.928ZM328.357 236.138L330.872 231.792H334.167L330.127 238.298L334.302 245H331.03L328.394 240.483L325.769 245H322.473L326.648 238.298L322.62 231.792H325.891L328.357 236.138ZM339.905 228.582V231.792H342.236V233.989H339.905V241.362C339.905 241.867 340.002 242.233 340.198 242.461C340.401 242.681 340.759 242.791 341.272 242.791C341.614 242.791 341.96 242.75 342.31 242.668V244.963C341.634 245.151 340.983 245.244 340.356 245.244C338.078 245.244 336.938 243.987 336.938 241.472V233.989H334.766V231.792H336.938V228.582H339.905ZM350.33 245.244C348.45 245.244 346.924 244.654 345.752 243.474C344.588 242.286 344.006 240.707 344.006 238.738V238.372C344.006 237.053 344.259 235.877 344.763 234.844C345.276 233.802 345.992 232.992 346.912 232.415C347.831 231.837 348.857 231.548 349.988 231.548C351.786 231.548 353.174 232.122 354.15 233.269C355.135 234.417 355.627 236.04 355.627 238.14V239.336H346.997C347.087 240.426 347.449 241.289 348.083 241.924C348.726 242.559 349.532 242.876 350.5 242.876C351.86 242.876 352.966 242.327 353.821 241.228L355.42 242.754C354.891 243.543 354.183 244.158 353.296 244.597C352.417 245.028 351.428 245.244 350.33 245.244ZM349.976 233.928C349.162 233.928 348.503 234.213 347.998 234.783C347.502 235.352 347.184 236.146 347.046 237.163H352.698V236.943C352.633 235.951 352.368 235.202 351.904 234.697C351.44 234.185 350.798 233.928 349.976 233.928ZM360.693 231.792L360.779 233.318C361.755 232.138 363.037 231.548 364.624 231.548C367.375 231.548 368.774 233.123 368.823 236.272V245H365.857V236.443C365.857 235.605 365.674 234.986 365.308 234.587C364.95 234.181 364.36 233.977 363.538 233.977C362.341 233.977 361.45 234.518 360.864 235.601V245H357.898V231.792H360.693ZM379.26 241.411C379.26 240.882 379.041 240.479 378.601 240.203C378.17 239.926 377.45 239.682 376.44 239.47C375.431 239.259 374.589 238.99 373.914 238.665C372.432 237.948 371.692 236.911 371.692 235.552C371.692 234.412 372.172 233.46 373.132 232.695C374.093 231.93 375.313 231.548 376.794 231.548C378.373 231.548 379.647 231.938 380.615 232.72C381.592 233.501 382.08 234.514 382.08 235.759H379.114C379.114 235.19 378.902 234.718 378.479 234.343C378.056 233.961 377.494 233.77 376.794 233.77C376.143 233.77 375.61 233.92 375.195 234.221C374.788 234.522 374.585 234.925 374.585 235.43C374.585 235.885 374.776 236.239 375.159 236.492C375.541 236.744 376.314 237 377.478 237.261C378.642 237.513 379.553 237.818 380.212 238.176C380.88 238.526 381.372 238.949 381.689 239.446C382.015 239.942 382.178 240.544 382.178 241.252C382.178 242.441 381.685 243.405 380.701 244.146C379.716 244.878 378.426 245.244 376.831 245.244C375.749 245.244 374.784 245.049 373.938 244.658C373.092 244.268 372.432 243.73 371.96 243.047C371.488 242.363 371.252 241.627 371.252 240.837H374.133C374.174 241.537 374.438 242.078 374.927 242.461C375.415 242.835 376.062 243.022 376.868 243.022C377.649 243.022 378.243 242.876 378.65 242.583C379.057 242.282 379.26 241.891 379.26 241.411ZM387.927 245H384.961V231.792H387.927V245ZM384.778 228.362C384.778 227.906 384.92 227.528 385.205 227.227C385.498 226.925 385.913 226.775 386.45 226.775C386.987 226.775 387.402 226.925 387.695 227.227C387.988 227.528 388.135 227.906 388.135 228.362C388.135 228.809 387.988 229.184 387.695 229.485C387.402 229.778 386.987 229.924 386.45 229.924C385.913 229.924 385.498 229.778 385.205 229.485C384.92 229.184 384.778 228.809 384.778 228.362ZM390.613 238.274C390.613 236.98 390.869 235.816 391.382 234.783C391.895 233.741 392.615 232.944 393.542 232.39C394.47 231.829 395.536 231.548 396.741 231.548C398.523 231.548 399.967 232.122 401.074 233.269C402.189 234.417 402.791 235.938 402.881 237.834L402.893 238.53C402.893 239.832 402.641 240.996 402.136 242.021C401.64 243.047 400.924 243.84 399.988 244.402C399.06 244.963 397.986 245.244 396.765 245.244C394.902 245.244 393.408 244.626 392.285 243.389C391.17 242.144 390.613 240.487 390.613 238.42V238.274ZM393.579 238.53C393.579 239.889 393.86 240.955 394.421 241.729C394.983 242.493 395.764 242.876 396.765 242.876C397.766 242.876 398.543 242.485 399.097 241.704C399.658 240.923 399.939 239.779 399.939 238.274C399.939 236.939 399.65 235.881 399.072 235.1C398.503 234.319 397.725 233.928 396.741 233.928C395.772 233.928 395.003 234.315 394.434 235.088C393.864 235.853 393.579 237 393.579 238.53ZM408.154 231.792L408.24 233.318C409.216 232.138 410.498 231.548 412.085 231.548C414.836 231.548 416.235 233.123 416.284 236.272V245H413.318V236.443C413.318 235.605 413.135 234.986 412.769 234.587C412.41 234.181 411.82 233.977 410.999 233.977C409.802 233.977 408.911 234.518 408.325 235.601V245H405.359V231.792H408.154ZM109.412 274C109.281 273.748 109.167 273.337 109.07 272.767C108.126 273.752 106.97 274.244 105.603 274.244C104.277 274.244 103.194 273.866 102.356 273.109C101.518 272.352 101.099 271.416 101.099 270.301C101.099 268.893 101.619 267.815 102.661 267.066C103.711 266.31 105.208 265.931 107.153 265.931H108.972V265.064C108.972 264.381 108.781 263.836 108.398 263.429C108.016 263.014 107.434 262.806 106.653 262.806C105.977 262.806 105.424 262.977 104.993 263.319C104.561 263.653 104.346 264.08 104.346 264.601H101.379C101.379 263.876 101.619 263.201 102.1 262.574C102.58 261.939 103.231 261.443 104.053 261.085C104.883 260.727 105.806 260.548 106.824 260.548C108.37 260.548 109.603 260.938 110.522 261.72C111.442 262.493 111.914 263.583 111.938 264.991V270.948C111.938 272.136 112.105 273.084 112.439 273.792V274H109.412ZM106.152 271.864C106.738 271.864 107.288 271.721 107.8 271.437C108.321 271.152 108.712 270.769 108.972 270.289V267.799H107.373C106.274 267.799 105.448 267.99 104.895 268.373C104.342 268.755 104.065 269.296 104.065 269.996C104.065 270.566 104.252 271.021 104.626 271.363C105.009 271.697 105.518 271.864 106.152 271.864ZM117.798 260.792L117.883 262.318C118.86 261.138 120.142 260.548 121.729 260.548C124.479 260.548 125.879 262.123 125.928 265.272V274H122.961V265.443C122.961 264.605 122.778 263.986 122.412 263.587C122.054 263.181 121.464 262.977 120.642 262.977C119.446 262.977 118.555 263.518 117.969 264.601V274H115.002V260.792H117.798ZM128.406 267.298C128.406 265.264 128.878 263.632 129.822 262.403C130.766 261.166 132.031 260.548 133.618 260.548C135.018 260.548 136.149 261.036 137.012 262.013V255.25H139.978V274H137.292L137.146 272.633C136.259 273.707 135.075 274.244 133.594 274.244C132.048 274.244 130.794 273.622 129.834 272.376C128.882 271.131 128.406 269.439 128.406 267.298ZM131.372 267.555C131.372 268.897 131.628 269.947 132.141 270.704C132.662 271.453 133.398 271.827 134.351 271.827C135.563 271.827 136.45 271.286 137.012 270.204V264.564C136.466 263.506 135.588 262.977 134.375 262.977C133.415 262.977 132.674 263.36 132.153 264.125C131.632 264.881 131.372 266.025 131.372 267.555ZM156.702 270.411C156.702 269.882 156.482 269.479 156.042 269.203C155.611 268.926 154.891 268.682 153.882 268.47C152.873 268.259 152.03 267.99 151.355 267.665C149.874 266.948 149.133 265.911 149.133 264.552C149.133 263.412 149.613 262.46 150.574 261.695C151.534 260.93 152.755 260.548 154.236 260.548C155.815 260.548 157.088 260.938 158.057 261.72C159.033 262.501 159.521 263.514 159.521 264.759H156.555C156.555 264.19 156.344 263.718 155.92 263.343C155.497 262.961 154.936 262.77 154.236 262.77C153.585 262.77 153.052 262.92 152.637 263.221C152.23 263.522 152.026 263.925 152.026 264.43C152.026 264.885 152.218 265.239 152.6 265.492C152.983 265.744 153.756 266 154.919 266.261C156.083 266.513 156.995 266.818 157.654 267.176C158.321 267.526 158.813 267.949 159.131 268.446C159.456 268.942 159.619 269.544 159.619 270.252C159.619 271.441 159.127 272.405 158.142 273.146C157.157 273.878 155.868 274.244 154.272 274.244C153.19 274.244 152.226 274.049 151.379 273.658C150.533 273.268 149.874 272.73 149.402 272.047C148.93 271.363 148.694 270.627 148.694 269.837H151.575C151.615 270.537 151.88 271.078 152.368 271.461C152.856 271.835 153.503 272.022 154.309 272.022C155.09 272.022 155.684 271.876 156.091 271.583C156.498 271.282 156.702 270.891 156.702 270.411ZM165.93 257.582V260.792H168.262V262.989H165.93V270.362C165.93 270.867 166.028 271.233 166.223 271.461C166.427 271.681 166.785 271.791 167.297 271.791C167.639 271.791 167.985 271.75 168.335 271.668V273.963C167.66 274.151 167.008 274.244 166.382 274.244C164.103 274.244 162.964 272.987 162.964 270.472V262.989H160.791V260.792H162.964V257.582H165.93ZM178.43 274C178.3 273.748 178.186 273.337 178.088 272.767C177.144 273.752 175.989 274.244 174.622 274.244C173.295 274.244 172.213 273.866 171.375 273.109C170.536 272.352 170.117 271.416 170.117 270.301C170.117 268.893 170.638 267.815 171.68 267.066C172.729 266.31 174.227 265.931 176.172 265.931H177.991V265.064C177.991 264.381 177.799 263.836 177.417 263.429C177.035 263.014 176.453 262.806 175.671 262.806C174.996 262.806 174.443 262.977 174.011 263.319C173.58 263.653 173.364 264.08 173.364 264.601H170.398C170.398 263.876 170.638 263.201 171.118 262.574C171.598 261.939 172.249 261.443 173.071 261.085C173.901 260.727 174.825 260.548 175.842 260.548C177.389 260.548 178.621 260.938 179.541 261.72C180.461 262.493 180.933 263.583 180.957 264.991V270.948C180.957 272.136 181.124 273.084 181.458 273.792V274H178.43ZM175.171 271.864C175.757 271.864 176.306 271.721 176.819 271.437C177.34 271.152 177.73 270.769 177.991 270.289V267.799H176.392C175.293 267.799 174.467 267.99 173.914 268.373C173.36 268.755 173.083 269.296 173.083 269.996C173.083 270.566 173.271 271.021 173.645 271.363C174.028 271.697 174.536 271.864 175.171 271.864ZM190.979 263.502C190.588 263.437 190.186 263.404 189.771 263.404C188.411 263.404 187.496 263.925 187.024 264.967V274H184.058V260.792H186.89L186.963 262.269C187.679 261.122 188.672 260.548 189.941 260.548C190.365 260.548 190.715 260.605 190.991 260.719L190.979 263.502ZM197.18 257.582V260.792H199.512V262.989H197.18V270.362C197.18 270.867 197.278 271.233 197.473 271.461C197.677 271.681 198.035 271.791 198.547 271.791C198.889 271.791 199.235 271.75 199.585 271.668V273.963C198.91 274.151 198.258 274.244 197.632 274.244C195.353 274.244 194.214 272.987 194.214 270.472V262.989H192.041V260.792H194.214V257.582H197.18ZM219.617 269.911L221.716 260.792H224.609L221.008 274H218.567L215.735 264.93L212.952 274H210.51L206.897 260.792H209.79L211.926 269.813L214.636 260.792H216.87L219.617 269.911ZM233.508 263.502C233.118 263.437 232.715 263.404 232.3 263.404C230.941 263.404 230.025 263.925 229.553 264.967V274H226.587V260.792H229.419L229.492 262.269C230.208 261.122 231.201 260.548 232.471 260.548C232.894 260.548 233.244 260.605 233.521 260.719L233.508 263.502ZM238.538 274H235.571V260.792H238.538V274ZM235.388 257.362C235.388 256.906 235.531 256.528 235.815 256.227C236.108 255.925 236.523 255.775 237.061 255.775C237.598 255.775 238.013 255.925 238.306 256.227C238.599 256.528 238.745 256.906 238.745 257.362C238.745 257.809 238.599 258.184 238.306 258.485C238.013 258.778 237.598 258.924 237.061 258.924C236.523 258.924 236.108 258.778 235.815 258.485C235.531 258.184 235.388 257.809 235.388 257.362ZM245.496 257.582V260.792H247.827V262.989H245.496V270.362C245.496 270.867 245.593 271.233 245.789 271.461C245.992 271.681 246.35 271.791 246.863 271.791C247.205 271.791 247.55 271.75 247.9 271.668V273.963C247.225 274.151 246.574 274.244 245.947 274.244C243.669 274.244 242.529 272.987 242.529 270.472V262.989H240.356V260.792H242.529V257.582H245.496ZM253.259 274H250.293V260.792H253.259V274ZM250.11 257.362C250.11 256.906 250.252 256.528 250.537 256.227C250.83 255.925 251.245 255.775 251.782 255.775C252.319 255.775 252.734 255.925 253.027 256.227C253.32 256.528 253.467 256.906 253.467 257.362C253.467 257.809 253.32 258.184 253.027 258.485C252.734 258.778 252.319 258.924 251.782 258.924C251.245 258.924 250.83 258.778 250.537 258.485C250.252 258.184 250.11 257.809 250.11 257.362ZM259.253 260.792L259.338 262.318C260.315 261.138 261.597 260.548 263.184 260.548C265.934 260.548 267.334 262.123 267.383 265.272V274H264.417V265.443C264.417 264.605 264.233 263.986 263.867 263.587C263.509 263.181 262.919 262.977 262.097 262.977C260.901 262.977 260.01 263.518 259.424 264.601V274H256.458V260.792H259.253ZM269.897 267.298C269.897 265.248 270.378 263.612 271.338 262.391C272.306 261.162 273.588 260.548 275.183 260.548C276.689 260.548 277.873 261.073 278.735 262.123L278.87 260.792H281.543V273.597C281.543 275.331 281.002 276.698 279.919 277.699C278.845 278.7 277.393 279.2 275.562 279.2C274.593 279.2 273.645 278.997 272.717 278.59C271.798 278.191 271.098 277.666 270.618 277.015L272.021 275.233C272.933 276.315 274.056 276.856 275.391 276.856C276.375 276.856 277.153 276.588 277.722 276.051C278.292 275.522 278.577 274.741 278.577 273.707V272.816C277.722 273.768 276.583 274.244 275.159 274.244C273.612 274.244 272.347 273.63 271.362 272.401C270.386 271.172 269.897 269.471 269.897 267.298ZM272.852 267.555C272.852 268.881 273.12 269.927 273.657 270.692C274.202 271.449 274.955 271.827 275.916 271.827C277.112 271.827 277.999 271.314 278.577 270.289V264.479C278.015 263.478 277.136 262.977 275.94 262.977C274.963 262.977 274.202 263.364 273.657 264.137C273.12 264.91 272.852 266.049 272.852 267.555Z" fill="#313131"/>
</svg>
