<svg width="1440" height="727" viewBox="0 0 1440 727" fill="none" xmlns="http://www.w3.org/2000/svg">
<path d="M535 526.927C394.5 569.182 0 665.102 0 579.746V0H1440V245.505C1440 366.778 1255.03 310.375 535 526.927Z" fill="#D63447"/>
<g clip-path="url(#clip0)">
<path d="M1186.89 127.515H1151.94V177.577H1186.89V127.515Z" fill="#2F2E41"/>
<path d="M1187.35 129.096C1184.23 139.574 1179.43 149.121 1169.65 149.121C1159.87 149.121 1152.49 140.138 1151.94 129.096C1151.24 114.987 1159.64 109.013 1169.65 109.071C1181.47 109.14 1191.07 116.661 1187.35 129.096Z" fill="#2F2E41"/>
<path d="M1178.35 144.663C1178.35 144.663 1175.55 163.634 1176.95 164.161C1178.35 164.688 1161.11 166.796 1161.11 166.796C1161.11 166.796 1166.24 152.568 1164.84 149.933C1163.44 147.298 1178.35 144.663 1178.35 144.663Z" fill="#FFB8B8"/>
<path opacity="0.1" d="M1178.35 144.663C1178.35 144.663 1175.55 163.634 1176.95 164.161C1178.35 164.688 1161.11 166.796 1161.11 166.796C1161.11 166.796 1166.24 152.568 1164.84 149.933C1163.44 147.298 1178.35 144.663 1178.35 144.663Z" fill="#313131"/>
<path d="M1213.02 212.907L1220.72 219.818C1220.72 219.818 1214.36 183.36 1214.18 180.68C1214 178.001 1208.02 159.648 1201.61 162.472C1195.2 165.297 1206.16 185.405 1206.16 185.405L1213.32 214.54L1213.02 212.907Z" fill="#FFB8B8"/>
<path d="M1168.57 154.676C1176.03 154.676 1182.08 147.834 1182.08 139.393C1182.08 130.953 1176.03 124.111 1168.57 124.111C1161.1 124.111 1155.05 130.953 1155.05 139.393C1155.05 147.834 1161.1 154.676 1168.57 154.676Z" fill="#FFB8B8"/>
<path d="M1168.57 161.526L1162.51 158.364C1162.51 158.364 1159.25 165.215 1157.38 165.215C1155.52 165.215 1139.68 168.904 1139.68 172.593C1139.68 176.281 1144.34 202.63 1144.34 202.63C1144.34 202.63 1153.66 227.924 1154.12 227.924C1154.59 227.924 1187.67 223.182 1187.67 223.182L1189.53 217.385L1192.33 183.132C1192.33 183.132 1181.15 174.7 1181.15 172.066C1181.15 169.431 1180.21 160.472 1178.35 160.472C1176.49 160.472 1173.22 163.634 1173.22 163.634L1168.57 161.526Z" fill="#D0CDE1"/>
<path d="M1188.13 185.24L1192.33 183.132C1192.33 183.132 1195.59 189.982 1196.52 190.509C1197.45 191.036 1198.85 193.671 1198.85 194.725C1198.85 195.779 1201.65 204.211 1203.98 204.738C1206.31 205.265 1210.03 207.372 1209.57 208.953C1209.28 209.801 1209.28 210.741 1209.57 211.588L1211.43 208.953L1221.22 217.385C1221.22 217.385 1226.34 235.302 1218.89 234.775C1211.43 234.248 1204.91 230.032 1201.65 227.924C1198.39 225.816 1198.39 226.87 1196.52 223.708C1194.66 220.547 1186.74 214.75 1186.74 214.75L1188.13 185.24Z" fill="#D0CDE1"/>
<path d="M1154.12 223.181L1150.39 225.289L1151.33 233.194C1151.33 233.194 1099.61 440.293 1107.06 441.874C1114.52 443.454 1135.48 447.67 1146.67 450.832C1157.85 453.994 1173.69 454.521 1173.69 450.832C1173.69 447.143 1178.35 315.928 1178.35 315.928C1178.35 315.928 1179.75 455.048 1183.94 455.048C1188.13 455.048 1222.61 463.479 1224.94 455.048C1227.27 446.616 1213.76 256.907 1196.99 234.775C1196.99 234.775 1188.6 222.655 1189.07 221.074C1189.53 219.493 1188.6 217.385 1188.6 217.385C1188.6 217.385 1189.07 216.331 1183.94 217.912C1178.82 219.493 1176.49 219.493 1175.09 218.966C1173.69 218.439 1171.36 216.331 1169.96 217.912C1168.57 219.493 1164.37 222.128 1162.51 221.601C1160.64 221.074 1159.71 217.912 1157.85 220.02C1156.75 221.273 1155.49 222.338 1154.12 223.181Z" fill="#2F2E41"/>
<path d="M1109.86 440.293C1109.86 440.293 1107.06 457.156 1109.86 457.683C1112.65 458.21 1126.63 459.264 1127.1 458.21C1127.56 457.156 1123.84 442.401 1122.44 441.347C1121.04 440.293 1109.86 440.293 1109.86 440.293Z" fill="#2F2E41"/>
<path d="M1206.31 442.401C1206.31 442.401 1209.1 457.156 1206.31 457.683C1203.51 458.21 1189.53 459.264 1189.07 458.21C1188.6 457.156 1192.33 444.508 1193.73 443.454C1195.12 442.401 1206.31 442.401 1206.31 442.401Z" fill="#2F2E41"/>
<path d="M1112.89 215.014C1112.89 215.014 1131.99 220.81 1136.65 221.864C1141.31 222.918 1146.43 228.188 1146.9 230.296C1147.37 232.403 1151.56 241.889 1154.82 239.781C1158.08 237.673 1154.82 219.756 1152.49 219.229C1150.16 218.702 1121.74 209.744 1121.74 209.744L1112.89 215.014Z" fill="#FFB8B8"/>
<path d="M1144.8 171.539H1139.68L1109.86 196.833C1109.86 196.833 1102.87 198.941 1103.33 200.522C1103.8 202.103 1096.34 211.588 1101 213.696C1105.66 215.804 1109.39 216.331 1111.25 217.912C1113.12 219.493 1124.77 210.534 1124.77 210.534L1122.9 208.953C1122.9 208.953 1144.34 200.522 1146.2 201.576C1148.06 202.63 1144.8 171.539 1144.8 171.539Z" fill="#D0CDE1"/>
<path d="M1158.55 163.371L1169.73 171.275L1168.8 199.731L1172.06 192.881L1173.92 199.731V171.275H1181.84L1181.38 166.532L1172.06 168.113L1159.95 160.736L1158.55 163.371Z" fill="#D63447"/>
<path d="M1161.37 118.557C1161.37 118.557 1161.21 117.59 1155.2 120.138C1149.2 122.686 1145.6 141.489 1148.6 152.531C1149.81 156.98 1148.82 160.189 1147.22 162.433C1141.19 170.857 1143.56 183.509 1152.35 187.841C1152.59 187.963 1152.85 188.084 1153.11 188.203L1156.86 190.751C1156.86 190.751 1152.07 183.628 1154.47 174.516C1156.55 166.752 1156.81 158.51 1155.21 150.6C1154.94 149.265 1154.63 147.89 1154.27 146.486C1151.27 134.595 1152.73 135.968 1163.24 124.077C1163.24 124.077 1169.25 129.174 1174.51 131.722C1179.77 134.27 1184.27 136.818 1180.52 145.311C1176.76 153.805 1167.75 161.449 1173.76 172.49C1179.77 183.532 1180.52 179.285 1179.76 183.532L1179.01 187.779L1183.52 182.683L1180.52 189.477C1180.52 189.477 1190.28 189.477 1193.28 180.984L1194.78 182.683C1194.78 182.683 1200.79 170.792 1189.53 159.75C1189.53 159.75 1185.77 157.202 1191.03 148.709C1196.29 140.215 1192.25 121.954 1185.49 118.557C1178.73 115.159 1161.37 118.557 1161.37 118.557Z" fill="#2F2E41"/>
<path d="M1169.65 113.287C1173.51 113.287 1176.64 109.748 1176.64 105.382C1176.64 101.017 1173.51 97.4779 1169.65 97.4779C1165.79 97.4779 1162.66 101.017 1162.66 105.382C1162.66 109.748 1165.79 113.287 1169.65 113.287Z" fill="#2F2E41"/>
<path d="M1161.26 101.167C1161.26 99.2072 1161.91 97.3176 1163.07 95.8644C1164.23 94.4112 1165.83 93.4981 1167.55 93.3021C1167.32 93.2762 1167.09 93.2621 1166.85 93.2621C1165 93.2621 1163.22 94.0949 1161.91 95.5773C1160.6 97.0597 1159.86 99.0703 1159.86 101.167C1159.86 103.263 1160.6 105.274 1161.91 106.756C1163.22 108.238 1165 109.071 1166.85 109.071C1167.09 109.071 1167.32 109.057 1167.55 109.031C1165.83 108.835 1164.23 107.922 1163.07 106.469C1161.91 105.016 1161.26 103.126 1161.26 101.167V101.167Z" fill="#2F2E41"/>
<path d="M1182.23 139.635C1182.74 139.635 1183.16 138.692 1183.16 137.527C1183.16 136.363 1182.74 135.42 1182.23 135.42C1181.71 135.42 1181.3 136.363 1181.3 137.527C1181.3 138.692 1181.71 139.635 1182.23 139.635Z" fill="#FFB8B8"/>
<path d="M1019.81 424.366C1022.93 437.43 1033.64 445.521 1033.64 445.521C1033.64 445.521 1039.27 432.431 1036.15 419.367C1033.02 406.303 1022.32 398.212 1022.32 398.212C1022.32 398.212 1016.69 411.302 1019.81 424.366Z" fill="#3F3D56"/>
<path d="M1024.4 421.559C1032.98 430.999 1034.02 445.51 1034.02 445.51C1034.02 445.51 1021.17 444.717 1012.59 435.277C1004.02 425.837 1002.97 411.325 1002.97 411.325C1002.97 411.325 1015.83 412.119 1024.4 421.559Z" fill="#D63447"/>
<path d="M1313.3 457.946H1011.37V459H1313.3V457.946Z" fill="#2F2E41"/>
<path d="M1037.87 458.473H1025.75V444.772H1037.87V458.473ZM1026.69 457.419H1036.94V445.826H1026.69V457.419Z" fill="#3F3D56"/>
<path d="M1056.74 323.569H954V251.901H1070.95V302.137" fill="#F2F2F2"/>
<path d="M1062.33 318.299H959.125V245.578H1077.01V296.341H1076.08V246.632H960.057V317.245H1062.33V318.299Z" fill="#313131"/>
<path d="M1104.43 318.563H1076.54V317.509H1100.84L1076.55 302.217L1077 301.297L1104.43 318.563Z" fill="#313131"/>
<path d="M1063.5 270.872H972.638V271.926H1063.5V270.872Z" fill="#313131"/>
<path d="M1063.5 281.412H972.638V282.465H1063.5V281.412Z" fill="#313131"/>
<path d="M1063.5 291.951H972.638V293.005H1063.5V291.951Z" fill="#313131"/>
<path d="M1102.63 322.173C1104.74 322.173 1106.45 320.236 1106.45 317.847C1106.45 315.458 1104.74 313.521 1102.63 313.521C1100.52 313.521 1098.8 315.458 1098.8 317.847C1098.8 320.236 1100.52 322.173 1102.63 322.173Z" fill="#D63447"/>
<path d="M1027.65 239.693L1025.74 238.984C1018.91 236.38 1014.42 234.717 1012.82 230.643C1012.51 229.874 1012.33 229.041 1012.3 228.193C1012.28 227.345 1012.4 226.5 1012.67 225.708C1012.94 224.916 1013.34 224.192 1013.86 223.58C1014.38 222.968 1015 222.48 1015.69 222.145C1016.5 221.744 1017.38 221.547 1018.27 221.569C1019.15 221.59 1020.02 221.829 1020.82 222.269C1021.06 221.307 1021.49 220.417 1022.07 219.661C1022.65 218.905 1023.37 218.3 1024.17 217.89C1024.85 217.537 1025.59 217.342 1026.34 217.318C1027.09 217.293 1027.84 217.439 1028.54 217.746C1029.24 218.054 1029.87 218.516 1030.41 219.107C1030.95 219.698 1031.38 220.405 1031.67 221.186C1033.27 225.261 1031.35 230.139 1028.47 237.613L1027.65 239.693Z" fill="#FF6584"/>
<path d="M1085.06 132.158H1041.6V165.978H1085.06V132.158Z" fill="#F2F2F2"/>
<path d="M1088.66 162.966H1044.26V128.091H1088.66V162.966ZM1045.19 161.912H1087.72V129.145H1045.19V161.912Z" fill="#313131"/>
<path d="M1066.28 146.168L1044.46 129.051L1044.99 128.185L1066.29 144.889L1087.93 128.183L1088.45 129.053L1066.28 146.168Z" fill="#313131"/>
<path d="M1066.28 149.854C1068.4 149.854 1070.11 147.917 1070.11 145.528C1070.11 143.139 1068.4 141.202 1066.28 141.202C1064.17 141.202 1062.46 143.139 1062.46 145.528C1062.46 147.917 1064.17 149.854 1066.28 149.854Z" fill="#D63447"/>
<path d="M1060.14 120.446L1058.84 119.963C1054.19 118.191 1051.14 117.059 1050.05 114.285C1049.83 113.762 1049.71 113.195 1049.7 112.618C1049.68 112.041 1049.76 111.466 1049.95 110.926C1050.13 110.387 1050.4 109.895 1050.76 109.478C1051.11 109.061 1051.53 108.729 1052 108.501C1052.55 108.228 1053.15 108.094 1053.75 108.109C1054.36 108.124 1054.95 108.286 1055.49 108.586C1055.66 107.931 1055.95 107.325 1056.34 106.81C1056.74 106.296 1057.23 105.884 1057.78 105.605C1058.24 105.364 1058.74 105.232 1059.25 105.215C1059.76 105.199 1060.27 105.298 1060.75 105.507C1061.22 105.716 1061.66 106.031 1062.02 106.433C1062.39 106.836 1062.68 107.317 1062.88 107.849C1063.97 110.622 1062.66 113.942 1060.7 119.03L1060.14 120.446Z" fill="#FF6584"/>
<path d="M1310.11 305.003H1266.65V338.824H1310.11V305.003Z" fill="#F2F2F2"/>
<path d="M1308.58 308.814H1299.26V311.976H1308.58V308.814Z" fill="#D63447"/>
<path d="M1308.58 317.772H1287.15V319.88H1308.58V317.772Z" fill="white"/>
<path d="M1308.58 321.988H1277.36V324.096H1308.58V321.988Z" fill="white"/>
<path d="M1308.58 326.204H1277.36V328.312H1308.58V326.204Z" fill="white"/>
<path d="M1297.12 298.857L1296.69 297.852C1295.18 294.242 1294.17 291.886 1294.9 289.863C1295.03 289.475 1295.23 289.122 1295.49 288.823C1295.74 288.524 1296.05 288.287 1296.39 288.124C1296.72 287.961 1297.09 287.877 1297.45 287.876C1297.82 287.876 1298.19 287.958 1298.52 288.119C1298.93 288.306 1299.29 288.59 1299.58 288.95C1299.87 289.311 1300.09 289.739 1300.23 290.206C1300.61 289.977 1301.03 289.845 1301.47 289.819C1301.9 289.793 1302.33 289.875 1302.74 290.057C1303.08 290.209 1303.39 290.438 1303.65 290.728C1303.91 291.019 1304.12 291.366 1304.26 291.75C1304.41 292.133 1304.48 292.545 1304.48 292.961C1304.47 293.376 1304.4 293.787 1304.26 294.169C1303.53 296.192 1301.35 297.084 1298.04 298.477L1297.12 298.857Z" fill="#FF6584"/>
<path d="M1256.63 179.18H1359.37V107.512H1242.42V157.748" fill="#F2F2F2"/>
<path d="M1354.24 173.91H1251.03V172.856H1353.31V102.242H1237.29V151.951H1236.36V101.188H1354.24V173.91Z" fill="#313131"/>
<path d="M1236.83 174.173H1208.94L1236.37 156.907L1236.82 157.828L1212.53 173.12H1236.83V174.173Z" fill="#313131"/>
<path d="M1340.73 126.483H1249.87V127.537H1340.73V126.483Z" fill="#313131"/>
<path d="M1340.73 137.022H1249.87V138.076H1340.73V137.022Z" fill="#313131"/>
<path d="M1340.73 147.561H1249.87V148.615H1340.73V147.561Z" fill="#313131"/>
<path d="M1210.73 177.784C1212.84 177.784 1214.55 175.847 1214.55 173.458C1214.55 171.069 1212.84 169.132 1210.73 169.132C1208.61 169.132 1206.9 171.069 1206.9 173.458C1206.9 175.847 1208.61 177.784 1210.73 177.784Z" fill="#D63447"/>
<path d="M1347.31 87.0539L1347.01 85.1784C1346.02 78.4545 1345.33 74.056 1347.36 71.1164C1347.74 70.5495 1348.21 70.0738 1348.75 69.7176C1349.3 69.3614 1349.9 69.1319 1350.52 69.0426C1351.14 68.9534 1351.77 69.0062 1352.38 69.198C1352.98 69.3899 1353.54 69.7167 1354.03 70.1593C1354.62 70.6776 1355.09 71.3327 1355.42 72.0792C1355.76 72.8257 1355.95 73.6457 1355.97 74.4823C1356.7 74.3075 1357.45 74.313 1358.17 74.4984C1358.89 74.6838 1359.57 75.0447 1360.15 75.5559C1360.65 75.9857 1361.07 76.5243 1361.38 77.1399C1361.69 77.7555 1361.89 78.4355 1361.97 79.1398C1362.04 79.844 1361.99 80.5581 1361.82 81.2399C1361.65 81.9217 1361.35 82.5572 1360.96 83.1088C1358.93 86.0485 1354.99 86.3697 1348.99 86.9175L1347.31 87.0539Z" fill="#FF6584"/>
</g>
<defs>
<clipPath id="clip0">
<rect x="954" y="69" width="408" height="390" fill="white"/>
</clipPath>
</defs>
</svg>
